<svg xmlns="http://www.w3.org/2000/svg" xmlns:xlink="http://www.w3.org/1999/xlink" version="1.1" class="marks" width="554" height="884" viewBox="0 0 277 442"><rect width="277" height="442" fill="white"/><g fill="none" stroke-miterlimit="10" transform="translate(71,5)"><g class="mark-group role-frame root" role="graphics-object" aria-roledescription="group mark container"><g transform="translate(0,0)"><path class="background" aria-hidden="true" d="M0.5,0.5h200v400h-200Z" stroke="#ddd"/><g><g class="mark-group role-axis" aria-hidden="true"><g transform="translate(0.5,400.5)"><path class="background" aria-hidden="true" d="M0,0h0v0h0Z" pointer-events="none"/><g><g class="mark-rule role-axis-grid" pointer-events="none"><line transform="translate(0,0)" x2="0" y2="-400" stroke="#ddd" stroke-width="1" opacity="1"/><line transform="translate(29,0)" x2="0" y2="-400" stroke="#ddd" stroke-width="1" opacity="1"/><line transform="translate(57,0)" x2="0" y2="-400" stroke="#ddd" stroke-width="1" opacity="1"/><line transform="translate(86,0)" x2="0" y2="-400" stroke="#ddd" stroke-width="1" opacity="1"/><line transform="translate(114,0)" x2="0" y2="-400" stroke="#ddd" stroke-width="1" opacity="1"/><line transform="translate(143,0)" x2="0" y2="-400" stroke="#ddd" stroke-width="1" opacity="1"/><line transform="translate(171,0)" x2="0" y2="-400" stroke="#ddd" stroke-width="1" opacity="1"/><line transform="translate(200,0)" x2="0" y2="-400" stroke="#ddd" stroke-width="1" opacity="1"/></g></g><path class="foreground" aria-hidden="true" d="" pointer-events="none" display="none"/></g></g><g class="mark-group role-axis" role="graphics-symbol" aria-roledescription="axis" aria-label="X-axis titled 'Confidence' for a linear scale with values from 0 to 7"><g transform="translate(0.5,400.5)"><path class="background" aria-hidden="true" d="M0,0h0v0h0Z" pointer-events="none"/><g><g class="mark-rule role-axis-tick" pointer-events="none"><line transform="translate(0,0)" x2="0" y2="5" stroke="#888" stroke-width="1" opacity="1"/><line transform="translate(29,0)" x2="0" y2="5" stroke="#888" stroke-width="1" opacity="1"/><line transform="translate(57,0)" x2="0" y2="5" stroke="#888" stroke-width="1" opacity="1"/><line transform="translate(86,0)" x2="0" y2="5" stroke="#888" stroke-width="1" opacity="1"/><line transform="translate(114,0)" x2="0" y2="5" stroke="#888" stroke-width="1" opacity="1"/><line transform="translate(143,0)" x2="0" y2="5" stroke="#888" stroke-width="1" opacity="1"/><line transform="translate(171,0)" x2="0" y2="5" stroke="#888" stroke-width="1" opacity="1"/><line transform="translate(200,0)" x2="0" y2="5" stroke="#888" stroke-width="1" opacity="1"/></g><g class="mark-text role-axis-label" pointer-events="none"><text text-anchor="start" transform="translate(0,15)" font-family="sans-serif" font-size="10px" fill="#000" opacity="1">0</text><text text-anchor="middle" transform="translate(28.57142857142857,15)" font-family="sans-serif" font-size="10px" fill="#000" opacity="1">1</text><text text-anchor="middle" transform="translate(57.14285714285714,15)" font-family="sans-serif" font-size="10px" fill="#000" opacity="1">2</text><text text-anchor="middle" transform="translate(85.71428571428571,15)" font-family="sans-serif" font-size="10px" fill="#000" opacity="1">3</text><text text-anchor="middle" transform="translate(114.28571428571428,15)" font-family="sans-serif" font-size="10px" fill="#000" opacity="1">4</text><text text-anchor="middle" transform="translate(142.85714285714286,15)" font-family="sans-serif" font-size="10px" fill="#000" opacity="1">5</text><text text-anchor="middle" transform="translate(171.42857142857142,15)" font-family="sans-serif" font-size="10px" fill="#000" opacity="1">6</text><text text-anchor="end" transform="translate(200,15)" font-family="sans-serif" font-size="10px" fill="#000" opacity="1">7</text></g><g class="mark-rule role-axis-domain" pointer-events="none"><line transform="translate(0,0)" x2="200" y2="0" stroke="#888" stroke-width="1" opacity="1"/></g><g class="mark-text role-axis-title" pointer-events="none"><text text-anchor="middle" transform="translate(100,30)" font-family="sans-serif" font-size="11px" font-weight="bold" fill="#000" opacity="1">Confidence</text></g></g><path class="foreground" aria-hidden="true" d="" pointer-events="none" display="none"/></g></g><g class="mark-group role-axis" role="graphics-symbol" aria-roledescription="axis" aria-label="Y-axis titled 'Task | Visualization' for a discrete scale with 20 values: jitter - T1, abs - T1, norm - T1, both - T1, jitter - T2, ending with both - T5"><g transform="translate(0.5,0.5)"><path class="background" aria-hidden="true" d="M0,0h0v0h0Z" pointer-events="none"/><g><g class="mark-rule role-axis-tick" pointer-events="none"><line transform="translate(0,10)" x2="-5" y2="0" stroke="#888" stroke-width="1" opacity="1"/><line transform="translate(0,30)" x2="-5" y2="0" stroke="#888" stroke-width="1" opacity="1"/><line transform="translate(0,50)" x2="-5" y2="0" stroke="#888" stroke-width="1" opacity="1"/><line transform="translate(0,70)" x2="-5" y2="0" stroke="#888" stroke-width="1" opacity="1"/><line transform="translate(0,90)" x2="-5" y2="0" stroke="#888" stroke-width="1" opacity="1"/><line transform="translate(0,110)" x2="-5" y2="0" stroke="#888" stroke-width="1" opacity="1"/><line transform="translate(0,130)" x2="-5" y2="0" stroke="#888" stroke-width="1" opacity="1"/><line transform="translate(0,150)" x2="-5" y2="0" stroke="#888" stroke-width="1" opacity="1"/><line transform="translate(0,170)" x2="-5" y2="0" stroke="#888" stroke-width="1" opacity="1"/><line transform="translate(0,190)" x2="-5" y2="0" stroke="#888" stroke-width="1" opacity="1"/><line transform="translate(0,210)" x2="-5" y2="0" stroke="#888" stroke-width="1" opacity="1"/><line transform="translate(0,230)" x2="-5" y2="0" stroke="#888" stroke-width="1" opacity="1"/><line transform="translate(0,250)" x2="-5" y2="0" stroke="#888" stroke-width="1" opacity="1"/><line transform="translate(0,270)" x2="-5" y2="0" stroke="#888" stroke-width="1" opacity="1"/><line transform="translate(0,290)" x2="-5" y2="0" stroke="#888" stroke-width="1" opacity="1"/><line transform="translate(0,310)" x2="-5" y2="0" stroke="#888" stroke-width="1" opacity="1"/><line transform="translate(0,330)" x2="-5" y2="0" stroke="#888" stroke-width="1" opacity="1"/><line transform="translate(0,350)" x2="-5" y2="0" stroke="#888" stroke-width="1" opacity="1"/><line transform="translate(0,370)" x2="-5" y2="0" stroke="#888" stroke-width="1" opacity="1"/><line transform="translate(0,390)" x2="-5" y2="0" stroke="#888" stroke-width="1" opacity="1"/></g><g class="mark-text role-axis-label" pointer-events="none"><text text-anchor="end" transform="translate(-7,12.5)" font-family="sans-serif" font-size="10px" fill="#000" opacity="1">jitter - T1</text><text text-anchor="end" transform="translate(-7,32.5)" font-family="sans-serif" font-size="10px" fill="#000" opacity="1">abs - T1</text><text text-anchor="end" transform="translate(-7,52.5)" font-family="sans-serif" font-size="10px" fill="#000" opacity="1">norm - T1</text><text text-anchor="end" transform="translate(-7,72.5)" font-family="sans-serif" font-size="10px" fill="#000" opacity="1">both - T1</text><text text-anchor="end" transform="translate(-7,92.5)" font-family="sans-serif" font-size="10px" fill="#000" opacity="1">jitter - T2</text><text text-anchor="end" transform="translate(-7,112.5)" font-family="sans-serif" font-size="10px" fill="#000" opacity="1">abs - T2</text><text text-anchor="end" transform="translate(-7,132.5)" font-family="sans-serif" font-size="10px" fill="#000" opacity="1">norm - T2</text><text text-anchor="end" transform="translate(-7,152.5)" font-family="sans-serif" font-size="10px" fill="#000" opacity="1">both - T2</text><text text-anchor="end" transform="translate(-7,172.5)" font-family="sans-serif" font-size="10px" fill="#000" opacity="1">jitter - T3</text><text text-anchor="end" transform="translate(-7,192.5)" font-family="sans-serif" font-size="10px" fill="#000" opacity="1">abs - T3</text><text text-anchor="end" transform="translate(-7,212.5)" font-family="sans-serif" font-size="10px" fill="#000" opacity="1">norm - T3</text><text text-anchor="end" transform="translate(-7,232.5)" font-family="sans-serif" font-size="10px" fill="#000" opacity="1">both - T3</text><text text-anchor="end" transform="translate(-7,252.5)" font-family="sans-serif" font-size="10px" fill="#000" opacity="1">jitter - T4</text><text text-anchor="end" transform="translate(-7,272.5)" font-family="sans-serif" font-size="10px" fill="#000" opacity="1">abs - T4</text><text text-anchor="end" transform="translate(-7,292.5)" font-family="sans-serif" font-size="10px" fill="#000" opacity="1">norm - T4</text><text text-anchor="end" transform="translate(-7,312.5)" font-family="sans-serif" font-size="10px" fill="#000" opacity="1">both - T4</text><text text-anchor="end" transform="translate(-7,332.5)" font-family="sans-serif" font-size="10px" fill="#000" opacity="1">jitter - T5</text><text text-anchor="end" transform="translate(-7,352.5)" font-family="sans-serif" font-size="10px" fill="#000" opacity="1">abs - T5</text><text text-anchor="end" transform="translate(-7,372.5)" font-family="sans-serif" font-size="10px" fill="#000" opacity="1">norm - T5</text><text text-anchor="end" transform="translate(-7,392.5)" font-family="sans-serif" font-size="10px" fill="#000" opacity="1">both - T5</text></g><g class="mark-rule role-axis-domain" pointer-events="none"><line transform="translate(0,0)" x2="0" y2="400" stroke="#888" stroke-width="1" opacity="1"/></g><g class="mark-text role-axis-title" pointer-events="none"><text text-anchor="middle" transform="translate(-54.33984375,200) rotate(-90) translate(0,-2)" font-family="sans-serif" font-size="11px" font-weight="bold" fill="#000" opacity="1">Task | Visualization</text></g></g><path class="foreground" aria-hidden="true" d="" pointer-events="none" display="none"/></g></g><g class="mark-symbol role-mark layer_0_marks" role="graphics-object" aria-roledescription="symbol mark container"><path aria-label="average: 5.80503571429; factor: jitter - T1; tech: jitter" role="graphics-symbol" aria-roledescription="point" transform="translate(165.85816326530548,10)" d="M2.739,0A2.739,2.739,0,1,1,-2.739,0A2.739,2.739,0,1,1,2.739,0" fill="#e45756" stroke-width="2" opacity="0.7"/><path aria-label="average: 6.44221428571; factor: abs - T1; tech: abs" role="graphics-symbol" aria-roledescription="point" transform="translate(184.06326530612245,30)" d="M2.739,0A2.739,2.739,0,1,1,-2.739,0A2.739,2.739,0,1,1,2.739,0" fill="#4c78a8" stroke-width="2" opacity="0.7"/><path aria-label="average: 6.42636607143; factor: norm - T1; tech: norm" role="graphics-symbol" aria-roledescription="point" transform="translate(183.61045918367392,50)" d="M2.739,0A2.739,2.739,0,1,1,-2.739,0A2.739,2.739,0,1,1,2.739,0" fill="#72b7b2" stroke-width="2" opacity="0.7"/><path aria-label="average: 6.28084210526; factor: both - T1; tech: both" role="graphics-symbol" aria-roledescription="point" transform="translate(179.45263157894732,70)" d="M2.739,0A2.739,2.739,0,1,1,-2.739,0A2.739,2.739,0,1,1,2.739,0" fill="#f58518" stroke-width="2" opacity="0.7"/><path aria-label="average: 5.66528571429; factor: jitter - T2; tech: jitter" role="graphics-symbol" aria-roledescription="point" transform="translate(161.86530612244937,90)" d="M2.739,0A2.739,2.739,0,1,1,-2.739,0A2.739,2.739,0,1,1,2.739,0" fill="#e45756" stroke-width="2" opacity="0.7"/><path aria-label="average: 5.36495535714; factor: abs - T2; tech: abs" role="graphics-symbol" aria-roledescription="point" transform="translate(153.2844387755103,110)" d="M2.739,0A2.739,2.739,0,1,1,-2.739,0A2.739,2.739,0,1,1,2.739,0" fill="#4c78a8" stroke-width="2" opacity="0.7"/><path aria-label="average: 5.51139285714; factor: norm - T2; tech: norm" role="graphics-symbol" aria-roledescription="point" transform="translate(157.46836734693883,130)" d="M2.739,0A2.739,2.739,0,1,1,-2.739,0A2.739,2.739,0,1,1,2.739,0" fill="#72b7b2" stroke-width="2" opacity="0.7"/><path aria-label="average: 5.50235087719; factor: both - T2; tech: both" role="graphics-symbol" aria-roledescription="point" transform="translate(157.21002506265717,150)" d="M2.739,0A2.739,2.739,0,1,1,-2.739,0A2.739,2.739,0,1,1,2.739,0" fill="#f58518" stroke-width="2" opacity="0.7"/><path aria-label="average: 4.75598809524; factor: jitter - T3; tech: jitter" role="graphics-symbol" aria-roledescription="point" transform="translate(135.8853741496597,170)" d="M2.739,0A2.739,2.739,0,1,1,-2.739,0A2.739,2.739,0,1,1,2.739,0" fill="#e45756" stroke-width="2" opacity="0.7"/><path aria-label="average: 5.51026785714; factor: abs - T3; tech: abs" role="graphics-symbol" aria-roledescription="point" transform="translate(157.43622448979588,190)" d="M2.739,0A2.739,2.739,0,1,1,-2.739,0A2.739,2.739,0,1,1,2.739,0" fill="#4c78a8" stroke-width="2" opacity="0.7"/><path aria-label="average: 5.15525892857; factor: norm - T3; tech: norm" role="graphics-symbol" aria-roledescription="point" transform="translate(147.2931122448982,210)" d="M2.739,0A2.739,2.739,0,1,1,-2.739,0A2.739,2.739,0,1,1,2.739,0" fill="#72b7b2" stroke-width="2" opacity="0.7"/><path aria-label="average: 5.57296491228; factor: both - T3; tech: both" role="graphics-symbol" aria-roledescription="point" transform="translate(159.22756892230586,230)" d="M2.739,0A2.739,2.739,0,1,1,-2.739,0A2.739,2.739,0,1,1,2.739,0" fill="#f58518" stroke-width="2" opacity="0.7"/><path aria-label="average: 4.94926190476; factor: jitter - T4; tech: jitter" role="graphics-symbol" aria-roledescription="point" transform="translate(141.40748299319714,250)" d="M2.739,0A2.739,2.739,0,1,1,-2.739,0A2.739,2.739,0,1,1,2.739,0" fill="#e45756" stroke-width="2" opacity="0.7"/><path aria-label="average: 5.5718125; factor: abs - T4; tech: abs" role="graphics-symbol" aria-roledescription="point" transform="translate(159.19464285714278,270)" d="M2.739,0A2.739,2.739,0,1,1,-2.739,0A2.739,2.739,0,1,1,2.739,0" fill="#4c78a8" stroke-width="2" opacity="0.7"/><path aria-label="average: 3.8339375; factor: norm - T4; tech: norm" role="graphics-symbol" aria-roledescription="point" transform="translate(109.54107142857137,290)" d="M2.739,0A2.739,2.739,0,1,1,-2.739,0A2.739,2.739,0,1,1,2.739,0" fill="#72b7b2" stroke-width="2" opacity="0.7"/><path aria-label="average: 5.75379824561; factor: both - T4; tech: both" role="graphics-symbol" aria-roledescription="point" transform="translate(164.3942355889725,310)" d="M2.739,0A2.739,2.739,0,1,1,-2.739,0A2.739,2.739,0,1,1,2.739,0" fill="#f58518" stroke-width="2" opacity="0.7"/><path aria-label="average: 4.28296428571; factor: jitter - T5; tech: jitter" role="graphics-symbol" aria-roledescription="point" transform="translate(122.37040816326525,330)" d="M2.739,0A2.739,2.739,0,1,1,-2.739,0A2.739,2.739,0,1,1,2.739,0" fill="#e45756" stroke-width="2" opacity="0.7"/><path aria-label="average: 4.661875; factor: abs - T5; tech: abs" role="graphics-symbol" aria-roledescription="point" transform="translate(133.19642857142856,350)" d="M2.739,0A2.739,2.739,0,1,1,-2.739,0A2.739,2.739,0,1,1,2.739,0" fill="#4c78a8" stroke-width="2" opacity="0.7"/><path aria-label="average: 4.57695535714; factor: norm - T5; tech: norm" role="graphics-symbol" aria-roledescription="point" transform="translate(130.77015306122433,370)" d="M2.739,0A2.739,2.739,0,1,1,-2.739,0A2.739,2.739,0,1,1,2.739,0" fill="#72b7b2" stroke-width="2" opacity="0.7"/><path aria-label="average: 4.90159649123; factor: both - T5; tech: both" role="graphics-symbol" aria-roledescription="point" transform="translate(140.04561403508765,390)" d="M2.739,0A2.739,2.739,0,1,1,-2.739,0A2.739,2.739,0,1,1,2.739,0" fill="#f58518" stroke-width="2" opacity="0.7"/></g><g class="mark-rule role-mark layer_1_marks" role="graphics-object" aria-roledescription="rule mark container"><line aria-label="lower: 5.5; factor: jitter - T1; upper: 6.09523809524; tech: jitter" role="graphics-symbol" aria-roledescription="rule mark" transform="translate(157.14285714285714,10)" x2="17.006802721088434" y2="0" stroke="#e45756"/><line aria-label="lower: 6.23214285714; factor: abs - T1; upper: 6.625; tech: abs" role="graphics-symbol" aria-roledescription="rule mark" transform="translate(178.0612244897959,30)" x2="11.224489795918373" y2="0" stroke="#4c78a8"/><line aria-label="lower: 6.21428571429; factor: norm - T1; upper: 6.625; tech: norm" role="graphics-symbol" aria-roledescription="rule mark" transform="translate(177.55102040816325,50)" x2="11.734693877551024" y2="0" stroke="#72b7b2"/><line aria-label="lower: 6.0350877193; factor: both - T1; upper: 6.52631578947; tech: both" role="graphics-symbol" aria-roledescription="rule mark" transform="translate(172.4310776942356,70)" x2="14.035087719298218" y2="0" stroke="#f58518"/><line aria-label="lower: 5.33303571429; factor: jitter - T2; upper: 5.9880952381; tech: jitter" role="graphics-symbol" aria-roledescription="rule mark" transform="translate(152.37244897959184,90)" x2="18.71598639455783" y2="0" stroke="#e45756"/><line aria-label="lower: 5.08013392857; factor: abs - T2; upper: 5.66071428571; tech: abs" role="graphics-symbol" aria-roledescription="rule mark" transform="translate(145.1466836734694,110)" x2="16.588010204081627" y2="0" stroke="#4c78a8"/><line aria-label="lower: 5.21428571429; factor: norm - T2; upper: 5.79464285714; tech: norm" role="graphics-symbol" aria-roledescription="rule mark" transform="translate(148.9795918367347,130)" x2="16.581632653061206" y2="0" stroke="#72b7b2"/><line aria-label="lower: 5.19276315789; factor: both - T2; upper: 5.79824561404; tech: both" role="graphics-symbol" aria-roledescription="rule mark" transform="translate(148.36466165413532,150)" x2="17.299498746867187" y2="0" stroke="#f58518"/><line aria-label="lower: 4.41636904762; factor: jitter - T3; upper: 5.10714285714; tech: jitter" role="graphics-symbol" aria-roledescription="rule mark" transform="translate(126.18197278911565,170)" x2="19.736394557823118" y2="0" stroke="#e45756"/><line aria-label="lower: 5.20535714286; factor: abs - T3; upper: 5.78571428571; tech: abs" role="graphics-symbol" aria-roledescription="rule mark" transform="translate(148.72448979591837,190)" x2="16.581632653061234" y2="0" stroke="#4c78a8"/><line aria-label="lower: 4.83013392857; factor: norm - T3; upper: 5.48214285714; tech: norm" role="graphics-symbol" aria-roledescription="rule mark" transform="translate(138.00382653061226,210)" x2="18.6288265306122" y2="0" stroke="#72b7b2"/><line aria-label="lower: 5.28947368421; factor: both - T3; upper: 5.8423245614; tech: both" role="graphics-symbol" aria-roledescription="rule mark" transform="translate(151.12781954887217,230)" x2="15.795739348370944" y2="0" stroke="#f58518"/><line aria-label="lower: 4.61904761905; factor: jitter - T4; upper: 5.27410714286; tech: jitter" role="graphics-symbol" aria-roledescription="rule mark" transform="translate(131.97278911564624,250)" x2="18.71598639455783" y2="0" stroke="#e45756"/><line aria-label="lower: 5.24107142857; factor: abs - T4; upper: 5.89285714286; tech: abs" role="graphics-symbol" aria-roledescription="rule mark" transform="translate(149.74489795918367,270)" x2="18.622448979591866" y2="0" stroke="#4c78a8"/><line aria-label="lower: 3.4375; factor: norm - T4; upper: 4.24107142857; tech: norm" role="graphics-symbol" aria-roledescription="rule mark" transform="translate(98.21428571428571,290)" x2="22.959183673469397" y2="0" stroke="#72b7b2"/><line aria-label="lower: 5.46469298246; factor: both - T4; upper: 6.01754385965; tech: both" role="graphics-symbol" aria-roledescription="rule mark" transform="translate(156.13408521303256,310)" x2="15.795739348370915" y2="0" stroke="#f58518"/><line aria-label="lower: 3.99970238095; factor: jitter - T5; upper: 4.58363095238; tech: jitter" role="graphics-symbol" aria-roledescription="rule mark" transform="translate(114.27721088435374,330)" x2="16.68367346938777" y2="0" stroke="#e45756"/><line aria-label="lower: 4.34821428571; factor: abs - T5; upper: 4.95558035714; tech: abs" role="graphics-symbol" aria-roledescription="rule mark" transform="translate(124.23469387755102,350)" x2="17.353316326530603" y2="0" stroke="#4c78a8"/><line aria-label="lower: 4.26785714286; factor: norm - T5; upper: 4.89285714286; tech: norm" role="graphics-symbol" aria-roledescription="rule mark" transform="translate(121.9387755102041,370)" x2="17.85714285714286" y2="0" stroke="#72b7b2"/><line aria-label="lower: 4.57894736842; factor: both - T5; upper: 5.20197368421; tech: both" role="graphics-symbol" aria-roledescription="rule mark" transform="translate(130.82706766917292,390)" x2="17.800751879699277" y2="0" stroke="#f58518"/></g></g><path class="foreground" aria-hidden="true" d="" display="none"/></g></g></g></svg>