<svg xmlns="http://www.w3.org/2000/svg" xmlns:xlink="http://www.w3.org/1999/xlink" version="1.1" class="marks" width="277" height="442" viewBox="0 0 277 442"><rect width="277" height="442" fill="white"/><g fill="none" stroke-miterlimit="10" transform="translate(71,5)"><g class="mark-group role-frame root" role="graphics-object" aria-roledescription="group mark container"><g transform="translate(0,0)"><path class="background" aria-hidden="true" d="M0.5,0.5h200v400h-200Z" stroke="#ddd"/><g><g class="mark-group role-axis" aria-hidden="true"><g transform="translate(0.5,400.5)"><path class="background" aria-hidden="true" d="M0,0h0v0h0Z" pointer-events="none"/><g><g class="mark-rule role-axis-grid" pointer-events="none"><line transform="translate(0,0)" x2="0" y2="-400" stroke="#ddd" stroke-width="1" opacity="1"/><line transform="translate(29,0)" x2="0" y2="-400" stroke="#ddd" stroke-width="1" opacity="1"/><line transform="translate(57,0)" x2="0" y2="-400" stroke="#ddd" stroke-width="1" opacity="1"/><line transform="translate(86,0)" x2="0" y2="-400" stroke="#ddd" stroke-width="1" opacity="1"/><line transform="translate(114,0)" x2="0" y2="-400" stroke="#ddd" stroke-width="1" opacity="1"/><line transform="translate(143,0)" x2="0" y2="-400" stroke="#ddd" stroke-width="1" opacity="1"/><line transform="translate(171,0)" x2="0" y2="-400" stroke="#ddd" stroke-width="1" opacity="1"/><line transform="translate(200,0)" x2="0" y2="-400" stroke="#ddd" stroke-width="1" opacity="1"/></g></g><path class="foreground" aria-hidden="true" d="" pointer-events="none" display="none"/></g></g><g class="mark-group role-axis" role="graphics-symbol" aria-roledescription="axis" aria-label="X-axis titled 'Completion time (sec)' for a linear scale with values from 0 to 70"><g transform="translate(0.5,400.5)"><path class="background" aria-hidden="true" d="M0,0h0v0h0Z" pointer-events="none"/><g><g class="mark-rule role-axis-tick" pointer-events="none"><line transform="translate(0,0)" x2="0" y2="5" stroke="#888" stroke-width="1" opacity="1"/><line transform="translate(29,0)" x2="0" y2="5" stroke="#888" stroke-width="1" opacity="1"/><line transform="translate(57,0)" x2="0" y2="5" stroke="#888" stroke-width="1" opacity="1"/><line transform="translate(86,0)" x2="0" y2="5" stroke="#888" stroke-width="1" opacity="1"/><line transform="translate(114,0)" x2="0" y2="5" stroke="#888" stroke-width="1" opacity="1"/><line transform="translate(143,0)" x2="0" y2="5" stroke="#888" stroke-width="1" opacity="1"/><line transform="translate(171,0)" x2="0" y2="5" stroke="#888" stroke-width="1" opacity="1"/><line transform="translate(200,0)" x2="0" y2="5" stroke="#888" stroke-width="1" opacity="1"/></g><g class="mark-text role-axis-label" pointer-events="none"><text text-anchor="start" transform="translate(0,15)" font-family="sans-serif" font-size="10px" fill="#000" opacity="1">0</text><text text-anchor="middle" transform="translate(28.57142857142857,15)" font-family="sans-serif" font-size="10px" fill="#000" opacity="1">10</text><text text-anchor="middle" transform="translate(57.14285714285714,15)" font-family="sans-serif" font-size="10px" fill="#000" opacity="1">20</text><text text-anchor="middle" transform="translate(85.71428571428571,15)" font-family="sans-serif" font-size="10px" fill="#000" opacity="1">30</text><text text-anchor="middle" transform="translate(114.28571428571428,15)" font-family="sans-serif" font-size="10px" fill="#000" opacity="1">40</text><text text-anchor="middle" transform="translate(142.85714285714286,15)" font-family="sans-serif" font-size="10px" fill="#000" opacity="1">50</text><text text-anchor="middle" transform="translate(171.42857142857142,15)" font-family="sans-serif" font-size="10px" fill="#000" opacity="1">60</text><text text-anchor="end" transform="translate(200,15)" font-family="sans-serif" font-size="10px" fill="#000" opacity="1">70</text></g><g class="mark-rule role-axis-domain" pointer-events="none"><line transform="translate(0,0)" x2="200" y2="0" stroke="#888" stroke-width="1" opacity="1"/></g><g class="mark-text role-axis-title" pointer-events="none"><text text-anchor="middle" transform="translate(100,30)" font-family="sans-serif" font-size="11px" font-weight="bold" fill="#000" opacity="1">Completion time (sec)</text></g></g><path class="foreground" aria-hidden="true" d="" pointer-events="none" display="none"/></g></g><g class="mark-group role-axis" role="graphics-symbol" aria-roledescription="axis" aria-label="Y-axis titled 'Visualization | Task' for a discrete scale with 20 values: jitter - T1, jitter - T2, jitter - T3, jitter - T4, jitter - T5, ending with both - T5"><g transform="translate(0.5,0.5)"><path class="background" aria-hidden="true" d="M0,0h0v0h0Z" pointer-events="none"/><g><g class="mark-rule role-axis-tick" pointer-events="none"><line transform="translate(0,10)" x2="-5" y2="0" stroke="#888" stroke-width="1" opacity="1"/><line transform="translate(0,30)" x2="-5" y2="0" stroke="#888" stroke-width="1" opacity="1"/><line transform="translate(0,50)" x2="-5" y2="0" stroke="#888" stroke-width="1" opacity="1"/><line transform="translate(0,70)" x2="-5" y2="0" stroke="#888" stroke-width="1" opacity="1"/><line transform="translate(0,90)" x2="-5" y2="0" stroke="#888" stroke-width="1" opacity="1"/><line transform="translate(0,110)" x2="-5" y2="0" stroke="#888" stroke-width="1" opacity="1"/><line transform="translate(0,130)" x2="-5" y2="0" stroke="#888" stroke-width="1" opacity="1"/><line transform="translate(0,150)" x2="-5" y2="0" stroke="#888" stroke-width="1" opacity="1"/><line transform="translate(0,170)" x2="-5" y2="0" stroke="#888" stroke-width="1" opacity="1"/><line transform="translate(0,190)" x2="-5" y2="0" stroke="#888" stroke-width="1" opacity="1"/><line transform="translate(0,210)" x2="-5" y2="0" stroke="#888" stroke-width="1" opacity="1"/><line transform="translate(0,230)" x2="-5" y2="0" stroke="#888" stroke-width="1" opacity="1"/><line transform="translate(0,250)" x2="-5" y2="0" stroke="#888" stroke-width="1" opacity="1"/><line transform="translate(0,270)" x2="-5" y2="0" stroke="#888" stroke-width="1" opacity="1"/><line transform="translate(0,290)" x2="-5" y2="0" stroke="#888" stroke-width="1" opacity="1"/><line transform="translate(0,310)" x2="-5" y2="0" stroke="#888" stroke-width="1" opacity="1"/><line transform="translate(0,330)" x2="-5" y2="0" stroke="#888" stroke-width="1" opacity="1"/><line transform="translate(0,350)" x2="-5" y2="0" stroke="#888" stroke-width="1" opacity="1"/><line transform="translate(0,370)" x2="-5" y2="0" stroke="#888" stroke-width="1" opacity="1"/><line transform="translate(0,390)" x2="-5" y2="0" stroke="#888" stroke-width="1" opacity="1"/></g><g class="mark-text role-axis-label" pointer-events="none"><text text-anchor="end" transform="translate(-7,12.5)" font-family="sans-serif" font-size="10px" fill="#000" opacity="1">jitter - T1</text><text text-anchor="end" transform="translate(-7,32.5)" font-family="sans-serif" font-size="10px" fill="#000" opacity="1">jitter - T2</text><text text-anchor="end" transform="translate(-7,52.5)" font-family="sans-serif" font-size="10px" fill="#000" opacity="1">jitter - T3</text><text text-anchor="end" transform="translate(-7,72.5)" font-family="sans-serif" font-size="10px" fill="#000" opacity="1">jitter - T4</text><text text-anchor="end" transform="translate(-7,92.5)" font-family="sans-serif" font-size="10px" fill="#000" opacity="1">jitter - T5</text><text text-anchor="end" transform="translate(-7,112.5)" font-family="sans-serif" font-size="10px" fill="#000" opacity="1">abs - T1</text><text text-anchor="end" transform="translate(-7,132.5)" font-family="sans-serif" font-size="10px" fill="#000" opacity="1">abs - T2</text><text text-anchor="end" transform="translate(-7,152.5)" font-family="sans-serif" font-size="10px" fill="#000" opacity="1">abs - T3</text><text text-anchor="end" transform="translate(-7,172.5)" font-family="sans-serif" font-size="10px" fill="#000" opacity="1">abs - T4</text><text text-anchor="end" transform="translate(-7,192.5)" font-family="sans-serif" font-size="10px" fill="#000" opacity="1">abs - T5</text><text text-anchor="end" transform="translate(-7,212.5)" font-family="sans-serif" font-size="10px" fill="#000" opacity="1">norm - T1</text><text text-anchor="end" transform="translate(-7,232.5)" font-family="sans-serif" font-size="10px" fill="#000" opacity="1">norm - T2</text><text text-anchor="end" transform="translate(-7,252.5)" font-family="sans-serif" font-size="10px" fill="#000" opacity="1">norm - T3</text><text text-anchor="end" transform="translate(-7,272.5)" font-family="sans-serif" font-size="10px" fill="#000" opacity="1">norm - T4</text><text text-anchor="end" transform="translate(-7,292.5)" font-family="sans-serif" font-size="10px" fill="#000" opacity="1">norm - T5</text><text text-anchor="end" transform="translate(-7,312.5)" font-family="sans-serif" font-size="10px" fill="#000" opacity="1">both - T1</text><text text-anchor="end" transform="translate(-7,332.5)" font-family="sans-serif" font-size="10px" fill="#000" opacity="1">both - T2</text><text text-anchor="end" transform="translate(-7,352.5)" font-family="sans-serif" font-size="10px" fill="#000" opacity="1">both - T3</text><text text-anchor="end" transform="translate(-7,372.5)" font-family="sans-serif" font-size="10px" fill="#000" opacity="1">both - T4</text><text text-anchor="end" transform="translate(-7,392.5)" font-family="sans-serif" font-size="10px" fill="#000" opacity="1">both - T5</text></g><g class="mark-rule role-axis-domain" pointer-events="none"><line transform="translate(0,0)" x2="0" y2="400" stroke="#888" stroke-width="1" opacity="1"/></g><g class="mark-text role-axis-title" pointer-events="none"><text text-anchor="middle" transform="translate(-54.33984375,200) rotate(-90) translate(0,-2)" font-family="sans-serif" font-size="11px" font-weight="bold" fill="#000" opacity="1">Visualization | Task</text></g></g><path class="foreground" aria-hidden="true" d="" pointer-events="none" display="none"/></g></g><g class="mark-symbol role-mark layer_0_marks" role="graphics-object" aria-roledescription="symbol mark container"><path aria-label="average: 36.5385855; factor: jitter - T1" role="graphics-symbol" aria-roledescription="point" transform="translate(104.39595857142858,10)" d="M2.7386127875258306,0A2.7386127875258306,2.7386127875258306,0,1,1,-2.7386127875258306,0A2.7386127875258306,2.7386127875258306,0,1,1,2.7386127875258306,0" fill="black" stroke-width="2" opacity="0.7"/><path aria-label="average: 26.1287404881; factor: jitter - T2" role="graphics-symbol" aria-roledescription="point" transform="translate(74.65354425170071,30)" d="M2.7386127875258306,0A2.7386127875258306,2.7386127875258306,0,1,1,-2.7386127875258306,0A2.7386127875258306,2.7386127875258306,0,1,1,2.7386127875258306,0" fill="black" stroke-width="2" opacity="0.7"/><path aria-label="average: 32.7831108571; factor: jitter - T3" role="graphics-symbol" aria-roledescription="point" transform="translate(93.6660310204081,50)" d="M2.7386127875258306,0A2.7386127875258306,2.7386127875258306,0,1,1,-2.7386127875258306,0A2.7386127875258306,2.7386127875258306,0,1,1,2.7386127875258306,0" fill="black" stroke-width="2" opacity="0.7"/><path aria-label="average: 33.1227760595; factor: jitter - T4" role="graphics-symbol" aria-roledescription="point" transform="translate(94.63650302721098,70)" d="M2.7386127875258306,0A2.7386127875258306,2.7386127875258306,0,1,1,-2.7386127875258306,0A2.7386127875258306,2.7386127875258306,0,1,1,2.7386127875258306,0" fill="black" stroke-width="2" opacity="0.7"/><path aria-label="average: 30.4261905714; factor: jitter - T5" role="graphics-symbol" aria-roledescription="point" transform="translate(86.93197306122448,90)" d="M2.7386127875258306,0A2.7386127875258306,2.7386127875258306,0,1,1,-2.7386127875258306,0A2.7386127875258306,2.7386127875258306,0,1,1,2.7386127875258306,0" fill="black" stroke-width="2" opacity="0.7"/><path aria-label="average: 43.1879549643; factor: abs - T1" role="graphics-symbol" aria-roledescription="point" transform="translate(123.39415704081638,110)" d="M2.7386127875258306,0A2.7386127875258306,2.7386127875258306,0,1,1,-2.7386127875258306,0A2.7386127875258306,2.7386127875258306,0,1,1,2.7386127875258306,0" fill="black" stroke-width="2" opacity="0.7"/><path aria-label="average: 34.8826947143; factor: abs - T2" role="graphics-symbol" aria-roledescription="point" transform="translate(99.66484204081641,130)" d="M2.7386127875258306,0A2.7386127875258306,2.7386127875258306,0,1,1,-2.7386127875258306,0A2.7386127875258306,2.7386127875258306,0,1,1,2.7386127875258306,0" fill="black" stroke-width="2" opacity="0.7"/><path aria-label="average: 41.0854883839; factor: abs - T3" role="graphics-symbol" aria-roledescription="point" transform="translate(117.38710966836734,150)" d="M2.7386127875258306,0A2.7386127875258306,2.7386127875258306,0,1,1,-2.7386127875258306,0A2.7386127875258306,2.7386127875258306,0,1,1,2.7386127875258306,0" fill="black" stroke-width="2" opacity="0.7"/><path aria-label="average: 30.4001764107; factor: abs - T4" role="graphics-symbol" aria-roledescription="point" transform="translate(86.85764688775521,170)" d="M2.7386127875258306,0A2.7386127875258306,2.7386127875258306,0,1,1,-2.7386127875258306,0A2.7386127875258306,2.7386127875258306,0,1,1,2.7386127875258306,0" fill="black" stroke-width="2" opacity="0.7"/><path aria-label="average: 34.1345706518; factor: abs - T5" role="graphics-symbol" aria-roledescription="point" transform="translate(97.52734471938766,190)" d="M2.7386127875258306,0A2.7386127875258306,2.7386127875258306,0,1,1,-2.7386127875258306,0A2.7386127875258306,2.7386127875258306,0,1,1,2.7386127875258306,0" fill="black" stroke-width="2" opacity="0.7"/><path aria-label="average: 42.2814336786; factor: norm - T1" role="graphics-symbol" aria-roledescription="point" transform="translate(120.8040962244898,210)" d="M2.7386127875258306,0A2.7386127875258306,2.7386127875258306,0,1,1,-2.7386127875258306,0A2.7386127875258306,2.7386127875258306,0,1,1,2.7386127875258306,0" fill="black" stroke-width="2" opacity="0.7"/><path aria-label="average: 34.2044378214; factor: norm - T2" role="graphics-symbol" aria-roledescription="point" transform="translate(97.72696520408175,230)" d="M2.7386127875258306,0A2.7386127875258306,2.7386127875258306,0,1,1,-2.7386127875258306,0A2.7386127875258306,2.7386127875258306,0,1,1,2.7386127875258306,0" fill="black" stroke-width="2" opacity="0.7"/><path aria-label="average: 35.4850245179; factor: norm - T3" role="graphics-symbol" aria-roledescription="point" transform="translate(101.38578433673466,250)" d="M2.7386127875258306,0A2.7386127875258306,2.7386127875258306,0,1,1,-2.7386127875258306,0A2.7386127875258306,2.7386127875258306,0,1,1,2.7386127875258306,0" fill="black" stroke-width="2" opacity="0.7"/><path aria-label="average: 33.4856404286; factor: norm - T4" role="graphics-symbol" aria-roledescription="point" transform="translate(95.67325836734682,270)" d="M2.7386127875258306,0A2.7386127875258306,2.7386127875258306,0,1,1,-2.7386127875258306,0A2.7386127875258306,2.7386127875258306,0,1,1,2.7386127875258306,0" fill="black" stroke-width="2" opacity="0.7"/><path aria-label="average: 36.4122789732; factor: norm - T5" role="graphics-symbol" aria-roledescription="point" transform="translate(104.03508278061211,290)" d="M2.7386127875258306,0A2.7386127875258306,2.7386127875258306,0,1,1,-2.7386127875258306,0A2.7386127875258306,2.7386127875258306,0,1,1,2.7386127875258306,0" fill="black" stroke-width="2" opacity="0.7"/><path aria-label="average: 51.500501307; factor: both - T1" role="graphics-symbol" aria-roledescription="point" transform="translate(147.1442894486216,310)" d="M2.7386127875258306,0A2.7386127875258306,2.7386127875258306,0,1,1,-2.7386127875258306,0A2.7386127875258306,2.7386127875258306,0,1,1,2.7386127875258306,0" fill="black" stroke-width="2" opacity="0.7"/><path aria-label="average: 56.2694446842; factor: both - T2" role="graphics-symbol" aria-roledescription="point" transform="translate(160.76984195488728,330)" d="M2.7386127875258306,0A2.7386127875258306,2.7386127875258306,0,1,1,-2.7386127875258306,0A2.7386127875258306,2.7386127875258306,0,1,1,2.7386127875258306,0" fill="black" stroke-width="2" opacity="0.7"/><path aria-label="average: 45.1956947018; factor: both - T3" role="graphics-symbol" aria-roledescription="point" transform="translate(129.13055629072693,350)" d="M2.7386127875258306,0A2.7386127875258306,2.7386127875258306,0,1,1,-2.7386127875258306,0A2.7386127875258306,2.7386127875258306,0,1,1,2.7386127875258306,0" fill="black" stroke-width="2" opacity="0.7"/><path aria-label="average: 40.9727595439; factor: both - T4" role="graphics-symbol" aria-roledescription="point" transform="translate(117.06502726817038,370)" d="M2.7386127875258306,0A2.7386127875258306,2.7386127875258306,0,1,1,-2.7386127875258306,0A2.7386127875258306,2.7386127875258306,0,1,1,2.7386127875258306,0" fill="black" stroke-width="2" opacity="0.7"/><path aria-label="average: 52.2342780789; factor: both - T5" role="graphics-symbol" aria-roledescription="point" transform="translate(149.2407945112781,390)" d="M2.7386127875258306,0A2.7386127875258306,2.7386127875258306,0,1,1,-2.7386127875258306,0A2.7386127875258306,2.7386127875258306,0,1,1,2.7386127875258306,0" fill="black" stroke-width="2" opacity="0.7"/></g><g class="mark-rule role-mark layer_1_marks" role="graphics-object" aria-roledescription="rule mark container"><line aria-label="lower: 31.3562741071; upper: 42.5468446429; factor: jitter - T1" role="graphics-symbol" aria-roledescription="rule mark" transform="translate(89.58935459183671,10)" x2="31.97305867346948" y2="0" stroke="black"/><line aria-label="lower: 22.9107446429; upper: 29.7008556548; factor: jitter - T2" role="graphics-symbol" aria-roledescription="rule mark" transform="translate(65.45927040816325,30)" x2="19.400317176870743" y2="0" stroke="black"/><line aria-label="lower: 28.71264375; upper: 37.513558631; factor: jitter - T3" role="graphics-symbol" aria-roledescription="rule mark" transform="translate(82.03612500000006,50)" x2="25.1454710884353" y2="0" stroke="black"/><line aria-label="lower: 28.169314881; upper: 38.3241220238; factor: jitter - T4" role="graphics-symbol" aria-roledescription="rule mark" transform="translate(80.48375680272108,70)" x2="29.013734693877552" y2="0" stroke="black"/><line aria-label="lower: 27.0174401786; upper: 34.3757800595; factor: jitter - T5" role="graphics-symbol" aria-roledescription="rule mark" transform="translate(77.19268622448982,90)" x2="21.023828231292526" y2="0" stroke="black"/><line aria-label="lower: 34.0481638393; upper: 54.8323729911; factor: abs - T1" role="graphics-symbol" aria-roledescription="rule mark" transform="translate(97.28046811224493,110)" x2="59.38345471938757" y2="0" stroke="black"/><line aria-label="lower: 30.8019997768; upper: 39.11841875; factor: abs - T2" role="graphics-symbol" aria-roledescription="rule mark" transform="translate(88.00571364795915,130)" x2="23.761197066326545" y2="0" stroke="black"/><line aria-label="lower: 32.0682883929; upper: 53.3482167411; factor: abs - T3" role="graphics-symbol" aria-roledescription="rule mark" transform="translate(91.62368112244897,150)" x2="60.7997952806123" y2="0" stroke="black"/><line aria-label="lower: 27.3512705357; upper: 33.7307209821; factor: abs - T4" role="graphics-symbol" aria-roledescription="rule mark" transform="translate(78.14648724489794,170)" x2="18.22700127551022" y2="0" stroke="black"/><line aria-label="lower: 30.331996875; upper: 37.9455388393; factor: abs - T5" role="graphics-symbol" aria-roledescription="rule mark" transform="translate(86.6628482142857,190)" x2="21.752977040816305" y2="0" stroke="black"/><line aria-label="lower: 34.6049352679; upper: 52.5126674107; factor: norm - T1" role="graphics-symbol" aria-roledescription="rule mark" transform="translate(98.87124362244903,210)" x2="51.164948979591756" y2="0" stroke="black"/><line aria-label="lower: 30.4840366071; upper: 38.7471176339; factor: norm - T2" role="graphics-symbol" aria-roledescription="rule mark" transform="translate(87.09724744897962,230)" x2="23.608802933673402" y2="0" stroke="black"/><line aria-label="lower: 31.282215625; upper: 39.7955966518; factor: norm - T3" role="graphics-symbol" aria-roledescription="rule mark" transform="translate(89.37775892857144,250)" x2="24.323945790816396" y2="0" stroke="black"/><line aria-label="lower: 29.6652433036; upper: 37.7108955357; factor: norm - T4" role="graphics-symbol" aria-roledescription="rule mark" transform="translate(84.75783801020404,270)" x2="22.987577806122417" y2="0" stroke="black"/><line aria-label="lower: 31.8933642857; upper: 41.5510799107; factor: norm - T5" role="graphics-symbol" aria-roledescription="rule mark" transform="translate(91.12389795918367,290)" x2="27.593473214285794" y2="0" stroke="black"/><line aria-label="lower: 44.4387359649; upper: 59.0419848684; factor: both - T1" role="graphics-symbol" aria-roledescription="rule mark" transform="translate(126.96781704260654,310)" x2="41.72356829573941" y2="0" stroke="black"/><line aria-label="lower: 46.375147807; upper: 67.9254006579; factor: both - T2" role="graphics-symbol" aria-roledescription="rule mark" transform="translate(132.50042230576435,330)" x2="61.572151002506274" y2="0" stroke="black"/><line aria-label="lower: 39.2063125; upper: 51.4932508772; factor: both - T3" role="graphics-symbol" aria-roledescription="rule mark" transform="translate(112.01803571428573,350)" x2="35.10553822055135" y2="0" stroke="black"/><line aria-label="lower: 36.8228307018; upper: 45.1670734649; factor: both - T4" role="graphics-symbol" aria-roledescription="rule mark" transform="translate(105.20808771929819,370)" x2="23.840693609022537" y2="0" stroke="black"/><line aria-label="lower: 45.7158173246; upper: 59.9371596491; factor: both - T5" role="graphics-symbol" aria-roledescription="rule mark" transform="translate(130.6166209273183,390)" x2="40.63240664160401" y2="0" stroke="black"/></g></g><path class="foreground" aria-hidden="true" d="" display="none"/></g></g></g></svg>