<svg xmlns="http://www.w3.org/2000/svg" xmlns:xlink="http://www.w3.org/1999/xlink" version="1.1" class="marks" width="277" height="442" viewBox="0 0 277 442"><rect width="277" height="442" fill="white"/><g fill="none" stroke-miterlimit="10" transform="translate(71,5)"><g class="mark-group role-frame root" role="graphics-object" aria-roledescription="group mark container"><g transform="translate(0,0)"><path class="background" aria-hidden="true" d="M0.5,0.5h200v400h-200Z" stroke="#ddd"/><g><g class="mark-group role-axis" aria-hidden="true"><g transform="translate(0.5,400.5)"><path class="background" aria-hidden="true" d="M0,0h0v0h0Z" pointer-events="none"/><g><g class="mark-rule role-axis-grid" pointer-events="none"><line transform="translate(0,0)" x2="0" y2="-400" stroke="#ddd" stroke-width="1" opacity="1"/><line transform="translate(40,0)" x2="0" y2="-400" stroke="#ddd" stroke-width="1" opacity="1"/><line transform="translate(80,0)" x2="0" y2="-400" stroke="#ddd" stroke-width="1" opacity="1"/><line transform="translate(120,0)" x2="0" y2="-400" stroke="#ddd" stroke-width="1" opacity="1"/><line transform="translate(160,0)" x2="0" y2="-400" stroke="#ddd" stroke-width="1" opacity="1"/><line transform="translate(200,0)" x2="0" y2="-400" stroke="#ddd" stroke-width="1" opacity="1"/></g></g><path class="foreground" aria-hidden="true" d="" pointer-events="none" display="none"/></g></g><g class="mark-group role-axis" role="graphics-symbol" aria-roledescription="axis" aria-label="X-axis titled 'Accuracy' for a linear scale with values from 0.0 to 1.0"><g transform="translate(0.5,400.5)"><path class="background" aria-hidden="true" d="M0,0h0v0h0Z" pointer-events="none"/><g><g class="mark-rule role-axis-tick" pointer-events="none"><line transform="translate(0,0)" x2="0" y2="5" stroke="#888" stroke-width="1" opacity="1"/><line transform="translate(40,0)" x2="0" y2="5" stroke="#888" stroke-width="1" opacity="1"/><line transform="translate(80,0)" x2="0" y2="5" stroke="#888" stroke-width="1" opacity="1"/><line transform="translate(120,0)" x2="0" y2="5" stroke="#888" stroke-width="1" opacity="1"/><line transform="translate(160,0)" x2="0" y2="5" stroke="#888" stroke-width="1" opacity="1"/><line transform="translate(200,0)" x2="0" y2="5" stroke="#888" stroke-width="1" opacity="1"/></g><g class="mark-text role-axis-label" pointer-events="none"><text text-anchor="start" transform="translate(0,15)" font-family="sans-serif" font-size="10px" fill="#000" opacity="1">0.0</text><text text-anchor="middle" transform="translate(40,15)" font-family="sans-serif" font-size="10px" fill="#000" opacity="1">0.2</text><text text-anchor="middle" transform="translate(80,15)" font-family="sans-serif" font-size="10px" fill="#000" opacity="1">0.4</text><text text-anchor="middle" transform="translate(120,15)" font-family="sans-serif" font-size="10px" fill="#000" opacity="1">0.6</text><text text-anchor="middle" transform="translate(160,15)" font-family="sans-serif" font-size="10px" fill="#000" opacity="1">0.8</text><text text-anchor="end" transform="translate(200,15)" font-family="sans-serif" font-size="10px" fill="#000" opacity="1">1.0</text></g><g class="mark-rule role-axis-domain" pointer-events="none"><line transform="translate(0,0)" x2="200" y2="0" stroke="#888" stroke-width="1" opacity="1"/></g><g class="mark-text role-axis-title" pointer-events="none"><text text-anchor="middle" transform="translate(100,30)" font-family="sans-serif" font-size="11px" font-weight="bold" fill="#000" opacity="1">Accuracy</text></g></g><path class="foreground" aria-hidden="true" d="" pointer-events="none" display="none"/></g></g><g class="mark-group role-axis" role="graphics-symbol" aria-roledescription="axis" aria-label="Y-axis titled 'Visualization | Task' for a discrete scale with 20 values: jitter - T1, jitter - T2, jitter - T3, jitter - T4, jitter - T5, ending with both - T5"><g transform="translate(0.5,0.5)"><path class="background" aria-hidden="true" d="M0,0h0v0h0Z" pointer-events="none"/><g><g class="mark-rule role-axis-tick" pointer-events="none"><line transform="translate(0,10)" x2="-5" y2="0" stroke="#888" stroke-width="1" opacity="1"/><line transform="translate(0,30)" x2="-5" y2="0" stroke="#888" stroke-width="1" opacity="1"/><line transform="translate(0,50)" x2="-5" y2="0" stroke="#888" stroke-width="1" opacity="1"/><line transform="translate(0,70)" x2="-5" y2="0" stroke="#888" stroke-width="1" opacity="1"/><line transform="translate(0,90)" x2="-5" y2="0" stroke="#888" stroke-width="1" opacity="1"/><line transform="translate(0,110)" x2="-5" y2="0" stroke="#888" stroke-width="1" opacity="1"/><line transform="translate(0,130)" x2="-5" y2="0" stroke="#888" stroke-width="1" opacity="1"/><line transform="translate(0,150)" x2="-5" y2="0" stroke="#888" stroke-width="1" opacity="1"/><line transform="translate(0,170)" x2="-5" y2="0" stroke="#888" stroke-width="1" opacity="1"/><line transform="translate(0,190)" x2="-5" y2="0" stroke="#888" stroke-width="1" opacity="1"/><line transform="translate(0,210)" x2="-5" y2="0" stroke="#888" stroke-width="1" opacity="1"/><line transform="translate(0,230)" x2="-5" y2="0" stroke="#888" stroke-width="1" opacity="1"/><line transform="translate(0,250)" x2="-5" y2="0" stroke="#888" stroke-width="1" opacity="1"/><line transform="translate(0,270)" x2="-5" y2="0" stroke="#888" stroke-width="1" opacity="1"/><line transform="translate(0,290)" x2="-5" y2="0" stroke="#888" stroke-width="1" opacity="1"/><line transform="translate(0,310)" x2="-5" y2="0" stroke="#888" stroke-width="1" opacity="1"/><line transform="translate(0,330)" x2="-5" y2="0" stroke="#888" stroke-width="1" opacity="1"/><line transform="translate(0,350)" x2="-5" y2="0" stroke="#888" stroke-width="1" opacity="1"/><line transform="translate(0,370)" x2="-5" y2="0" stroke="#888" stroke-width="1" opacity="1"/><line transform="translate(0,390)" x2="-5" y2="0" stroke="#888" stroke-width="1" opacity="1"/></g><g class="mark-text role-axis-label" pointer-events="none"><text text-anchor="end" transform="translate(-7,12.5)" font-family="sans-serif" font-size="10px" fill="#000" opacity="1">jitter - T1</text><text text-anchor="end" transform="translate(-7,32.5)" font-family="sans-serif" font-size="10px" fill="#000" opacity="1">jitter - T2</text><text text-anchor="end" transform="translate(-7,52.5)" font-family="sans-serif" font-size="10px" fill="#000" opacity="1">jitter - T3</text><text text-anchor="end" transform="translate(-7,72.5)" font-family="sans-serif" font-size="10px" fill="#000" opacity="1">jitter - T4</text><text text-anchor="end" transform="translate(-7,92.5)" font-family="sans-serif" font-size="10px" fill="#000" opacity="1">jitter - T5</text><text text-anchor="end" transform="translate(-7,112.5)" font-family="sans-serif" font-size="10px" fill="#000" opacity="1">abs - T1</text><text text-anchor="end" transform="translate(-7,132.5)" font-family="sans-serif" font-size="10px" fill="#000" opacity="1">abs - T2</text><text text-anchor="end" transform="translate(-7,152.5)" font-family="sans-serif" font-size="10px" fill="#000" opacity="1">abs - T3</text><text text-anchor="end" transform="translate(-7,172.5)" font-family="sans-serif" font-size="10px" fill="#000" opacity="1">abs - T4</text><text text-anchor="end" transform="translate(-7,192.5)" font-family="sans-serif" font-size="10px" fill="#000" opacity="1">abs - T5</text><text text-anchor="end" transform="translate(-7,212.5)" font-family="sans-serif" font-size="10px" fill="#000" opacity="1">norm - T1</text><text text-anchor="end" transform="translate(-7,232.5)" font-family="sans-serif" font-size="10px" fill="#000" opacity="1">norm - T2</text><text text-anchor="end" transform="translate(-7,252.5)" font-family="sans-serif" font-size="10px" fill="#000" opacity="1">norm - T3</text><text text-anchor="end" transform="translate(-7,272.5)" font-family="sans-serif" font-size="10px" fill="#000" opacity="1">norm - T4</text><text text-anchor="end" transform="translate(-7,292.5)" font-family="sans-serif" font-size="10px" fill="#000" opacity="1">norm - T5</text><text text-anchor="end" transform="translate(-7,312.5)" font-family="sans-serif" font-size="10px" fill="#000" opacity="1">both - T1</text><text text-anchor="end" transform="translate(-7,332.5)" font-family="sans-serif" font-size="10px" fill="#000" opacity="1">both - T2</text><text text-anchor="end" transform="translate(-7,352.5)" font-family="sans-serif" font-size="10px" fill="#000" opacity="1">both - T3</text><text text-anchor="end" transform="translate(-7,372.5)" font-family="sans-serif" font-size="10px" fill="#000" opacity="1">both - T4</text><text text-anchor="end" transform="translate(-7,392.5)" font-family="sans-serif" font-size="10px" fill="#000" opacity="1">both - T5</text></g><g class="mark-rule role-axis-domain" pointer-events="none"><line transform="translate(0,0)" x2="0" y2="400" stroke="#888" stroke-width="1" opacity="1"/></g><g class="mark-text role-axis-title" pointer-events="none"><text text-anchor="middle" transform="translate(-54.33984375,200) rotate(-90) translate(0,-2)" font-family="sans-serif" font-size="11px" font-weight="bold" fill="#000" opacity="1">Visualization | Task</text></g></g><path class="foreground" aria-hidden="true" d="" pointer-events="none" display="none"/></g></g><g class="mark-symbol role-mark layer_0_marks" role="graphics-object" aria-roledescription="symbol mark container"><path aria-label="average: 0.737404761905; factor: jitter - T1" role="graphics-symbol" aria-roledescription="point" transform="translate(147.48095238095368,10)" d="M2.7386127875258306,0A2.7386127875258306,2.7386127875258306,0,1,1,-2.7386127875258306,0A2.7386127875258306,2.7386127875258306,0,1,1,2.7386127875258306,0" fill="black" stroke-width="2" opacity="0.7"/><path aria-label="average: 0.558238095238; factor: jitter - T2" role="graphics-symbol" aria-roledescription="point" transform="translate(111.64761904761693,30)" d="M2.7386127875258306,0A2.7386127875258306,2.7386127875258306,0,1,1,-2.7386127875258306,0A2.7386127875258306,2.7386127875258306,0,1,1,2.7386127875258306,0" fill="black" stroke-width="2" opacity="0.7"/><path aria-label="average: 0.345630952381; factor: jitter - T3" role="graphics-symbol" aria-roledescription="point" transform="translate(69.12619047619147,50)" d="M2.7386127875258306,0A2.7386127875258306,2.7386127875258306,0,1,1,-2.7386127875258306,0A2.7386127875258306,2.7386127875258306,0,1,1,2.7386127875258306,0" fill="black" stroke-width="2" opacity="0.7"/><path aria-label="average: 0.43705952381; factor: jitter - T4" role="graphics-symbol" aria-roledescription="point" transform="translate(87.41190476190485,70)" d="M2.7386127875258306,0A2.7386127875258306,2.7386127875258306,0,1,1,-2.7386127875258306,0A2.7386127875258306,2.7386127875258306,0,1,1,2.7386127875258306,0" fill="black" stroke-width="2" opacity="0.7"/><path aria-label="average: 0.189035714286; factor: jitter - T5" role="graphics-symbol" aria-roledescription="point" transform="translate(37.80714285714282,90)" d="M2.7386127875258306,0A2.7386127875258306,2.7386127875258306,0,1,1,-2.7386127875258306,0A2.7386127875258306,2.7386127875258306,0,1,1,2.7386127875258306,0" fill="black" stroke-width="2" opacity="0.7"/><path aria-label="average: 0.901607142857; factor: abs - T1" role="graphics-symbol" aria-roledescription="point" transform="translate(180.3214285714311,110)" d="M2.7386127875258306,0A2.7386127875258306,2.7386127875258306,0,1,1,-2.7386127875258306,0A2.7386127875258306,2.7386127875258306,0,1,1,2.7386127875258306,0" fill="black" stroke-width="2" opacity="0.7"/><path aria-label="average: 0.600517857143; factor: abs - T2" role="graphics-symbol" aria-roledescription="point" transform="translate(120.10357142857167,130)" d="M2.7386127875258306,0A2.7386127875258306,2.7386127875258306,0,1,1,-2.7386127875258306,0A2.7386127875258306,2.7386127875258306,0,1,1,2.7386127875258306,0" fill="black" stroke-width="2" opacity="0.7"/><path aria-label="average: 0.581330357143; factor: abs - T3" role="graphics-symbol" aria-roledescription="point" transform="translate(116.26607142857132,150)" d="M2.7386127875258306,0A2.7386127875258306,2.7386127875258306,0,1,1,-2.7386127875258306,0A2.7386127875258306,2.7386127875258306,0,1,1,2.7386127875258306,0" fill="black" stroke-width="2" opacity="0.7"/><path aria-label="average: 0.702803571429; factor: abs - T4" role="graphics-symbol" aria-roledescription="point" transform="translate(140.56071428571443,170)" d="M2.7386127875258306,0A2.7386127875258306,2.7386127875258306,0,1,1,-2.7386127875258306,0A2.7386127875258306,2.7386127875258306,0,1,1,2.7386127875258306,0" fill="black" stroke-width="2" opacity="0.7"/><path aria-label="average: 0.319982142857; factor: abs - T5" role="graphics-symbol" aria-roledescription="point" transform="translate(63.996428571428844,190)" d="M2.7386127875258306,0A2.7386127875258306,2.7386127875258306,0,1,1,-2.7386127875258306,0A2.7386127875258306,2.7386127875258306,0,1,1,2.7386127875258306,0" fill="black" stroke-width="2" opacity="0.7"/><path aria-label="average: 0.928866071429; factor: norm - T1" role="graphics-symbol" aria-roledescription="point" transform="translate(185.77321428571287,210)" d="M2.7386127875258306,0A2.7386127875258306,2.7386127875258306,0,1,1,-2.7386127875258306,0A2.7386127875258306,2.7386127875258306,0,1,1,2.7386127875258306,0" fill="black" stroke-width="2" opacity="0.7"/><path aria-label="average: 0.518616071429; factor: norm - T2" role="graphics-symbol" aria-roledescription="point" transform="translate(103.7232142857142,230)" d="M2.7386127875258306,0A2.7386127875258306,2.7386127875258306,0,1,1,-2.7386127875258306,0A2.7386127875258306,2.7386127875258306,0,1,1,2.7386127875258306,0" fill="black" stroke-width="2" opacity="0.7"/><path aria-label="average: 0.622892857143; factor: norm - T3" role="graphics-symbol" aria-roledescription="point" transform="translate(124.57857142857121,250)" d="M2.7386127875258306,0A2.7386127875258306,2.7386127875258306,0,1,1,-2.7386127875258306,0A2.7386127875258306,2.7386127875258306,0,1,1,2.7386127875258306,0" fill="black" stroke-width="2" opacity="0.7"/><path aria-label="average: 0.739857142857; factor: norm - T4" role="graphics-symbol" aria-roledescription="point" transform="translate(147.97142857142796,270)" d="M2.7386127875258306,0A2.7386127875258306,2.7386127875258306,0,1,1,-2.7386127875258306,0A2.7386127875258306,2.7386127875258306,0,1,1,2.7386127875258306,0" fill="black" stroke-width="2" opacity="0.7"/><path aria-label="average: 0.347883928571; factor: norm - T5" role="graphics-symbol" aria-roledescription="point" transform="translate(69.57678571428552,290)" d="M2.7386127875258306,0A2.7386127875258306,2.7386127875258306,0,1,1,-2.7386127875258306,0A2.7386127875258306,2.7386127875258306,0,1,1,2.7386127875258306,0" fill="black" stroke-width="2" opacity="0.7"/><path aria-label="average: 0.852412280702; factor: both - T1" role="graphics-symbol" aria-roledescription="point" transform="translate(170.48245614035102,310)" d="M2.7386127875258306,0A2.7386127875258306,2.7386127875258306,0,1,1,-2.7386127875258306,0A2.7386127875258306,2.7386127875258306,0,1,1,2.7386127875258306,0" fill="black" stroke-width="2" opacity="0.7"/><path aria-label="average: 0.589728070175; factor: both - T2" role="graphics-symbol" aria-roledescription="point" transform="translate(117.94561403508696,330)" d="M2.7386127875258306,0A2.7386127875258306,2.7386127875258306,0,1,1,-2.7386127875258306,0A2.7386127875258306,2.7386127875258306,0,1,1,2.7386127875258306,0" fill="black" stroke-width="2" opacity="0.7"/><path aria-label="average: 0.605; factor: both - T3" role="graphics-symbol" aria-roledescription="point" transform="translate(120.99999999999918,350)" d="M2.7386127875258306,0A2.7386127875258306,2.7386127875258306,0,1,1,-2.7386127875258306,0A2.7386127875258306,2.7386127875258306,0,1,1,2.7386127875258306,0" fill="black" stroke-width="2" opacity="0.7"/><path aria-label="average: 0.735885964912; factor: both - T4" role="graphics-symbol" aria-roledescription="point" transform="translate(147.17719298245672,370)" d="M2.7386127875258306,0A2.7386127875258306,2.7386127875258306,0,1,1,-2.7386127875258306,0A2.7386127875258306,2.7386127875258306,0,1,1,2.7386127875258306,0" fill="black" stroke-width="2" opacity="0.7"/><path aria-label="average: 0.323535087719; factor: both - T5" role="graphics-symbol" aria-roledescription="point" transform="translate(64.7070175438598,390)" d="M2.7386127875258306,0A2.7386127875258306,2.7386127875258306,0,1,1,-2.7386127875258306,0A2.7386127875258306,2.7386127875258306,0,1,1,2.7386127875258306,0" fill="black" stroke-width="2" opacity="0.7"/></g><g class="mark-rule role-mark layer_1_marks" role="graphics-object" aria-roledescription="rule mark container"><line aria-label="lower: 0.642857142857; upper: 0.833333333333; factor: jitter - T1" role="graphics-symbol" aria-roledescription="rule mark" transform="translate(128.57142857142858,10)" x2="38.0952380952381" y2="0" stroke="black"/><line aria-label="lower: 0.440476190476; upper: 0.666666666667; factor: jitter - T2" role="graphics-symbol" aria-roledescription="rule mark" transform="translate(88.09523809523809,30)" x2="45.23809523809523" y2="0" stroke="black"/><line aria-label="lower: 0.25; upper: 0.452380952381; factor: jitter - T3" role="graphics-symbol" aria-roledescription="rule mark" transform="translate(50,50)" x2="40.47619047619048" y2="0" stroke="black"/><line aria-label="lower: 0.333333333333; upper: 0.535714285714; factor: jitter - T4" role="graphics-symbol" aria-roledescription="rule mark" transform="translate(66.66666666666666,70)" x2="40.47619047619048" y2="0" stroke="black"/><line aria-label="lower: 0.119047619048; upper: 0.27380952381; factor: jitter - T5" role="graphics-symbol" aria-roledescription="rule mark" transform="translate(23.809523809523807,90)" x2="30.95238095238096" y2="0" stroke="black"/><line aria-label="lower: 0.839285714286; upper: 0.955357142857; factor: abs - T1" role="graphics-symbol" aria-roledescription="rule mark" transform="translate(167.85714285714286,110)" x2="23.214285714285722" y2="0" stroke="black"/><line aria-label="lower: 0.508928571429; upper: 0.6875; factor: abs - T2" role="graphics-symbol" aria-roledescription="rule mark" transform="translate(101.78571428571428,130)" x2="35.71428571428572" y2="0" stroke="black"/><line aria-label="lower: 0.491071428571; upper: 0.669642857143; factor: abs - T3" role="graphics-symbol" aria-roledescription="rule mark" transform="translate(98.21428571428571,150)" x2="35.71428571428571" y2="0" stroke="black"/><line aria-label="lower: 0.616071428571; upper: 0.785714285714; factor: abs - T4" role="graphics-symbol" aria-roledescription="rule mark" transform="translate(123.21428571428572,170)" x2="33.928571428571416" y2="0" stroke="black"/><line aria-label="lower: 0.223214285714; upper: 0.410714285714; factor: abs - T5" role="graphics-symbol" aria-roledescription="rule mark" transform="translate(44.642857142857146,190)" x2="37.49999999999999" y2="0" stroke="black"/><line aria-label="lower: 0.875; upper: 0.973214285714; factor: norm - T1" role="graphics-symbol" aria-roledescription="rule mark" transform="translate(175,210)" x2="19.64285714285714" y2="0" stroke="black"/><line aria-label="lower: 0.428571428571; upper: 0.607142857143; factor: norm - T2" role="graphics-symbol" aria-roledescription="rule mark" transform="translate(85.71428571428571,230)" x2="35.71428571428571" y2="0" stroke="black"/><line aria-label="lower: 0.517857142857; upper: 0.714285714286; factor: norm - T3" role="graphics-symbol" aria-roledescription="rule mark" transform="translate(103.57142857142858,250)" x2="39.28571428571428" y2="0" stroke="black"/><line aria-label="lower: 0.660714285714; upper: 0.821428571429; factor: norm - T4" role="graphics-symbol" aria-roledescription="rule mark" transform="translate(132.14285714285714,270)" x2="32.14285714285714" y2="0" stroke="black"/><line aria-label="lower: 0.258928571429; upper: 0.4375; factor: norm - T5" role="graphics-symbol" aria-roledescription="rule mark" transform="translate(51.78571428571429,290)" x2="35.71428571428571" y2="0" stroke="black"/><line aria-label="lower: 0.789473684211; upper: 0.912280701754; factor: both - T1" role="graphics-symbol" aria-roledescription="rule mark" transform="translate(157.89473684210526,310)" x2="24.561403508771917" y2="0" stroke="black"/><line aria-label="lower: 0.5; upper: 0.675438596491; factor: both - T2" role="graphics-symbol" aria-roledescription="rule mark" transform="translate(100,330)" x2="35.08771929824562" y2="0" stroke="black"/><line aria-label="lower: 0.517543859649; upper: 0.69298245614; factor: both - T3" role="graphics-symbol" aria-roledescription="rule mark" transform="translate(103.50877192982458,350)" x2="35.08771929824562" y2="0" stroke="black"/><line aria-label="lower: 0.657894736842; upper: 0.815789473684; factor: both - T4" role="graphics-symbol" aria-roledescription="rule mark" transform="translate(131.57894736842107,370)" x2="31.57894736842104" y2="0" stroke="black"/><line aria-label="lower: 0.236842105263; upper: 0.412280701754; factor: both - T5" role="graphics-symbol" aria-roledescription="rule mark" transform="translate(47.368421052631575,390)" x2="35.08771929824562" y2="0" stroke="black"/></g></g><path class="foreground" aria-hidden="true" d="" display="none"/></g></g></g></svg>