<?xml version="1.0" encoding="UTF-8" standalone="no"?>
<!-- Created with Inkscape (http://www.inkscape.org/) -->

<svg
   width="219.66309mm"
   height="81.844452mm"
   viewBox="0 0 219.66309 81.844452"
   version="1.1"
   id="svg285534"
   xml:space="preserve"
   inkscape:version="1.2.1 (9c6d41e410, 2022-07-14)"
   sodipodi:docname="tick-marks.svg"
   xmlns:inkscape="http://www.inkscape.org/namespaces/inkscape"
   xmlns:sodipodi="http://sodipodi.sourceforge.net/DTD/sodipodi-0.dtd"
   xmlns="http://www.w3.org/2000/svg"
   xmlns:svg="http://www.w3.org/2000/svg"><sodipodi:namedview
     id="namedview285536"
     pagecolor="#ffffff"
     bordercolor="#000000"
     borderopacity="0.25"
     inkscape:showpageshadow="2"
     inkscape:pageopacity="0.0"
     inkscape:pagecheckerboard="0"
     inkscape:deskcolor="#d1d1d1"
     inkscape:document-units="mm"
     showgrid="false"
     inkscape:zoom="1.0458614"
     inkscape:cx="27.250265"
     inkscape:cy="438.87269"
     inkscape:window-width="2560"
     inkscape:window-height="1377"
     inkscape:window-x="1072"
     inkscape:window-y="194"
     inkscape:window-maximized="1"
     inkscape:current-layer="layer1" /><defs
     id="defs285531"><clipPath
       clipPathUnits="userSpaceOnUse"
       id="clipPath285630"><path
         d="M 0,232 H 622.667 V 0 H 0 Z"
         id="path285628" /></clipPath><clipPath
       clipPathUnits="userSpaceOnUse"
       id="clipPath285806"><path
         d="m 464.233,71.138 h 37.216 V 58.4769 h -37.216 z"
         id="path285804" /></clipPath><clipPath
       clipPathUnits="userSpaceOnUse"
       id="clipPath285822"><path
         d="m 463.359,61.6234 h 39.837 V 48.9622 h -39.837 z"
         id="path285820" /></clipPath><clipPath
       clipPathUnits="userSpaceOnUse"
       id="clipPath285842"><path
         d="m 547.705,70.8343 h 37.216 V 58.1732 h -37.216 z"
         id="path285840" /></clipPath><clipPath
       clipPathUnits="userSpaceOnUse"
       id="clipPath285858"><path
         d="m 546.831,61.3197 h 39.837 V 48.6585 h -39.837 z"
         id="path285856" /></clipPath></defs><g
     inkscape:label="Layer 1"
     inkscape:groupmode="layer"
     id="layer1"
     transform="translate(-220.00001)" /><g
     id="g285548"
     transform="matrix(0.35277776,0,0,-0.35277778,182.87116,72.19936)"><path
       d="M 0,0 V -12"
       style="fill:none;stroke:#ffffff;stroke-width:1;stroke-linecap:butt;stroke-linejoin:miter;stroke-miterlimit:4;stroke-dasharray:none;stroke-opacity:1"
       id="path285550" /></g><g
     id="g285552"
     transform="matrix(0.35277776,0,0,-0.35277778,37.259575,9.7601981)"><path
       d="M 0,0 V 12 Z"
       style="fill:#000000;fill-opacity:1;fill-rule:nonzero;stroke:none"
       id="path285554" /></g><g
     id="g285556"
     transform="matrix(0.35277776,0,0,-0.35277778,37.259465,5.5268648)"><path
       d="M 0,0 V -12"
       style="fill:none;stroke:#ffffff;stroke-width:2;stroke-linecap:butt;stroke-linejoin:miter;stroke-miterlimit:4;stroke-dasharray:none;stroke-opacity:1"
       id="path285558" /></g><g
     id="g285560"
     transform="matrix(0.35277776,0,0,-0.35277778,3.4679049,5.5268648)"><path
       d="M 0,0 V 0 H 49.547 191.574"
       style="fill:none;stroke:#000000;stroke-width:1;stroke-linecap:butt;stroke-linejoin:miter;stroke-miterlimit:4;stroke-dasharray:none;stroke-opacity:1"
       id="path285562" /></g><g
     id="g285564"
     transform="matrix(0.35277776,0,0,-0.35277778,37.259465,5.5268648)"><path
       d="M 0,0 V -12"
       style="fill:none;stroke:#ffffff;stroke-width:2;stroke-linecap:butt;stroke-linejoin:miter;stroke-miterlimit:4;stroke-dasharray:none;stroke-opacity:1"
       id="path285566" /></g><text
     xml:space="preserve"
     style="font-variant:normal;font-weight:normal;font-stretch:normal;font-size:8.46667px;font-family:Arial;-inkscape-font-specification:ArialMT;writing-mode:lr-tb;fill:#000000;fill-opacity:1;fill-rule:nonzero;stroke:none;stroke-width:0.352778"
     id="text285574"
     x="32.085735"
     y="32.720669"><tspan
       x="32.085735 34.905132 39.612606 103.90847 106.72787 111.43533"
       y="32.720669"
       sodipodi:role="line"
       id="tspan285568"
       style="stroke-width:0.352778">(a)(b)</tspan><tspan
       x="178.8808 181.7002 184.05396 103.90847 106.72787 111.43533 32.085735 34.905132 39.612606"
       y="76.578003"
       sodipodi:role="line"
       id="tspan285570"
       style="stroke-width:0.352778">(f)(e)(d)</tspan><tspan
       x="177.93256 180.75192 184.98526"
       y="32.720669"
       sodipodi:role="line"
       id="tspan285572"
       style="stroke-width:0.352778">(c)</tspan></text><g
     id="g285576"
     transform="matrix(0.35277776,0,0,-0.35277778,75.289265,5.5268648)"><path
       d="M 0,0 V 0 H 49.547 191.574"
       style="fill:none;stroke:#000000;stroke-width:1;stroke-linecap:butt;stroke-linejoin:miter;stroke-miterlimit:4;stroke-dasharray:none;stroke-opacity:1"
       id="path285578" /></g><g
     id="g285580"
     transform="matrix(0.35277776,0,0,-0.35277778,149.0796,5.5268648)"><path
       d="M 0,0 V 0 H 49.547 191.574"
       style="fill:none;stroke:#000000;stroke-width:1;stroke-linecap:butt;stroke-linejoin:miter;stroke-miterlimit:4;stroke-dasharray:none;stroke-opacity:1"
       id="path285582" /></g><g
     id="g285584"
     transform="matrix(0.35277776,0,0,-0.35277778,26.471555,14.091216)"><path
       d="M 0,0 V 24.554 Z"
       style="fill:#ffffff;fill-opacity:1;fill-rule:nonzero;stroke:none"
       id="path285586" /></g><g
     id="g285588"
     transform="matrix(0.35277776,0,0,-0.35277778,26.471695,5.4291806)"><path
       d="M 0,0 V -24.554"
       style="fill:none;stroke:#000000;stroke-width:1;stroke-linecap:butt;stroke-linejoin:miter;stroke-miterlimit:4;stroke-dasharray:none;stroke-opacity:1"
       id="path285590" /></g><g
     id="g285592"
     transform="matrix(0.35277776,0,0,-0.35277778,48.047265,14.091216)"><path
       d="M 0,0 V 24.554 Z"
       style="fill:#ffffff;fill-opacity:1;fill-rule:nonzero;stroke:none"
       id="path285594" /></g><g
     id="g285596"
     transform="matrix(0.35277776,0,0,-0.35277778,48.047235,5.4291806)"><path
       d="M 0,0 V -24.554"
       style="fill:none;stroke:#000000;stroke-width:1;stroke-linecap:butt;stroke-linejoin:miter;stroke-miterlimit:4;stroke-dasharray:none;stroke-opacity:1"
       id="path285598" /></g><g
     id="g285600"
     transform="matrix(0.35277776,0,0,-0.35277778,3.4679049,49.624087)"><path
       d="M 0,0 V 0 H 49.547 191.574"
       style="fill:none;stroke:#000000;stroke-width:1;stroke-linecap:butt;stroke-linejoin:miter;stroke-miterlimit:4;stroke-dasharray:none;stroke-opacity:1"
       id="path285602" /></g><g
     id="g285604"
     transform="matrix(0.35277776,0,0,-0.35277778,75.289265,49.624087)"><path
       d="M 0,0 V 0 H 49.547 191.574"
       style="fill:none;stroke:#000000;stroke-width:1;stroke-linecap:butt;stroke-linejoin:miter;stroke-miterlimit:4;stroke-dasharray:none;stroke-opacity:1"
       id="path285606" /></g><g
     id="g285608"
     transform="matrix(0.35277776,0,0,-0.35277778,149.0796,49.624087)"><path
       d="M 0,0 V 0 H 49.547 191.574"
       style="fill:none;stroke:#000000;stroke-width:1;stroke-linecap:butt;stroke-linejoin:miter;stroke-miterlimit:4;stroke-dasharray:none;stroke-opacity:1"
       id="path285610" /></g><g
     id="g285612"
     transform="matrix(0.35277776,0,0,-0.35277778,11.589835,49.647829)"><path
       d="M 0,0 V -13.677"
       style="fill:none;stroke:#231f20;stroke-width:1;stroke-linecap:butt;stroke-linejoin:miter;stroke-miterlimit:4;stroke-dasharray:none;stroke-opacity:1"
       id="path285614" /></g><g
     id="g285616"
     transform="matrix(0.35277776,0,0,-0.35277778,11.589835,54.472877)"><path
       d="M 0,0 H 68.135"
       style="fill:none;stroke:#231f20;stroke-width:1;stroke-linecap:butt;stroke-linejoin:miter;stroke-miterlimit:4;stroke-dasharray:none;stroke-opacity:1"
       id="path285618" /></g><g
     id="g285620"
     transform="matrix(0.35277776,0,0,-0.35277778,35.626245,54.472877)"><path
       d="M 0,0 V 13.677"
       style="fill:none;stroke:#231f20;stroke-width:1;stroke-linecap:butt;stroke-linejoin:miter;stroke-miterlimit:4;stroke-dasharray:none;stroke-opacity:1"
       id="path285622" /></g><g
     id="g285624"
     transform="matrix(0.35277776,0,0,-0.35277778,-5.0620427e-6,81.844446)"><g
       id="g285626"
       clip-path="url(#clipPath285630)"><g
         id="g285632"
         transform="translate(87.8079,80.9608)"><path
           d="m 0,0 c 0,9.378 6.915,16.98 15.447,16.98 8.531,0 15.447,-7.602 15.447,-16.98 0,-9.377 -6.916,-16.98 -15.447,-16.98 C 6.915,-16.98 0,-9.377 0,0 Z"
           style="fill:none;stroke:#3f5eab;stroke-width:1;stroke-linecap:butt;stroke-linejoin:miter;stroke-miterlimit:4;stroke-dasharray:5;stroke-dashoffset:0;stroke-opacity:1"
           id="path285634" /></g><g
         id="g285636"
         transform="translate(110.247,91.266)"><path
           d="M 0,0 V -13.677"
           style="fill:none;stroke:#231f20;stroke-width:1;stroke-linecap:butt;stroke-linejoin:miter;stroke-miterlimit:4;stroke-dasharray:none;stroke-opacity:1"
           id="path285638" /></g><g
         id="g285640"
         transform="translate(110.247,77.5887)"><path
           d="M 0,0 H 68.135"
           style="fill:none;stroke:#231f20;stroke-width:1;stroke-linecap:butt;stroke-linejoin:miter;stroke-miterlimit:4;stroke-dasharray:none;stroke-opacity:1"
           id="path285642" /></g><g
         id="g285644"
         transform="translate(178.3817,77.5887)"><path
           d="M 0,0 V 13.677"
           style="fill:none;stroke:#231f20;stroke-width:1;stroke-linecap:butt;stroke-linejoin:miter;stroke-miterlimit:4;stroke-dasharray:none;stroke-opacity:1"
           id="path285646" /></g><g
         id="g285648"
         transform="translate(443.024,204.3333)"><path
           d="M 0,0 H 63.909"
           style="fill:none;stroke:#000000;stroke-width:1;stroke-linecap:butt;stroke-linejoin:miter;stroke-miterlimit:4;stroke-dasharray:none;stroke-opacity:1"
           id="path285650" /></g><g
         id="g285652"
         transform="translate(504.9511,201.4641)"><path
           d="M 0,0 10.841,2.905 0,5.81 Z"
           style="fill:#000000;fill-opacity:1;fill-rule:nonzero;stroke:none"
           id="path285654" /></g><g
         id="g285656"
         transform="translate(445.0058,207.2025)"><path
           d="M 0,0 -10.841,-2.904 0,-5.81 Z"
           style="fill:#000000;fill-opacity:1;fill-rule:nonzero;stroke:none"
           id="path285658" /></g><g
         id="g285660"
         transform="translate(434.1864,204.3333)"><path
           d="M 0,0 V 6.853"
           style="fill:none;stroke:#000000;stroke-width:1;stroke-linecap:butt;stroke-linejoin:miter;stroke-miterlimit:4;stroke-dasharray:none;stroke-opacity:1"
           id="path285662" /></g><g
         id="g285664"
         transform="translate(434.1864,204.3333)"><path
           d="M 0,0 V -5.676"
           style="fill:none;stroke:#000000;stroke-width:1;stroke-linecap:butt;stroke-linejoin:miter;stroke-miterlimit:4;stroke-dasharray:none;stroke-opacity:1"
           id="path285666" /></g><g
         id="g285668"
         transform="translate(434.1864,198.6575)"><path
           d="M 0,0 V -0.734"
           style="fill:none;stroke:#000000;stroke-width:1;stroke-linecap:butt;stroke-linejoin:miter;stroke-miterlimit:4;stroke-dasharray:none;stroke-opacity:1"
           id="path285670" /></g><g
         id="g285672"
         transform="translate(515.5637,204.1116)"><path
           d="M 0,0 V 6.853"
           style="fill:none;stroke:#000000;stroke-width:1;stroke-linecap:butt;stroke-linejoin:miter;stroke-miterlimit:4;stroke-dasharray:none;stroke-opacity:1"
           id="path285674" /></g><g
         id="g285676"
         transform="translate(515.5637,204.1116)"><path
           d="M 0,0 V -5.676"
           style="fill:none;stroke:#000000;stroke-width:1;stroke-linecap:butt;stroke-linejoin:miter;stroke-miterlimit:4;stroke-dasharray:none;stroke-opacity:1"
           id="path285678" /></g><g
         id="g285680"
         transform="translate(515.5637,198.4357)"><path
           d="M 0,0 V -0.734"
           style="fill:none;stroke:#000000;stroke-width:1;stroke-linecap:butt;stroke-linejoin:miter;stroke-miterlimit:4;stroke-dasharray:none;stroke-opacity:1"
           id="path285682" /></g><g
         id="g285684"
         transform="translate(515.5637,204.1116)"><path
           d="M 0,0 V 6.853"
           style="fill:none;stroke:#000000;stroke-width:1;stroke-linecap:butt;stroke-linejoin:miter;stroke-miterlimit:4;stroke-dasharray:none;stroke-opacity:1"
           id="path285686" /></g><g
         id="g285688"
         transform="translate(515.5637,204.1116)"><path
           d="M 0,0 V -5.676"
           style="fill:none;stroke:#000000;stroke-width:1;stroke-linecap:butt;stroke-linejoin:miter;stroke-miterlimit:4;stroke-dasharray:none;stroke-opacity:1"
           id="path285690" /></g><g
         id="g285692"
         transform="translate(515.5637,198.4357)"><path
           d="M 0,0 V -0.734"
           style="fill:none;stroke:#000000;stroke-width:1;stroke-linecap:butt;stroke-linejoin:miter;stroke-miterlimit:4;stroke-dasharray:none;stroke-opacity:1"
           id="path285694" /></g><g
         id="g285696"
         transform="translate(530.024,204.0007)"><path
           d="M 0,0 H 63.909"
           style="fill:none;stroke:#000000;stroke-width:1;stroke-linecap:butt;stroke-linejoin:miter;stroke-miterlimit:4;stroke-dasharray:none;stroke-opacity:1"
           id="path285698" /></g><g
         id="g285700"
         transform="translate(591.951,201.1315)"><path
           d="M 0,0 10.841,2.905 0,5.81 Z"
           style="fill:#000000;fill-opacity:1;fill-rule:nonzero;stroke:none"
           id="path285702" /></g><g
         id="g285704"
         transform="translate(532.0059,206.8699)"><path
           d="M 0,0 -10.841,-2.904 0,-5.81 Z"
           style="fill:#000000;fill-opacity:1;fill-rule:nonzero;stroke:none"
           id="path285706" /></g><g
         id="g285708"
         transform="translate(521.1864,204.0007)"><path
           d="M 0,0 V 6.853"
           style="fill:none;stroke:#000000;stroke-width:1;stroke-linecap:butt;stroke-linejoin:miter;stroke-miterlimit:4;stroke-dasharray:none;stroke-opacity:1"
           id="path285710" /></g><g
         id="g285712"
         transform="translate(521.1864,204.0007)"><path
           d="M 0,0 V -5.676"
           style="fill:none;stroke:#000000;stroke-width:1;stroke-linecap:butt;stroke-linejoin:miter;stroke-miterlimit:4;stroke-dasharray:none;stroke-opacity:1"
           id="path285714" /></g><g
         id="g285716"
         transform="translate(521.1864,198.3249)"><path
           d="M 0,0 V -0.734"
           style="fill:none;stroke:#000000;stroke-width:1;stroke-linecap:butt;stroke-linejoin:miter;stroke-miterlimit:4;stroke-dasharray:none;stroke-opacity:1"
           id="path285718" /></g><g
         id="g285720"
         transform="translate(602.5637,203.7789)"><path
           d="M 0,0 V 6.853"
           style="fill:none;stroke:#000000;stroke-width:1;stroke-linecap:butt;stroke-linejoin:miter;stroke-miterlimit:4;stroke-dasharray:none;stroke-opacity:1"
           id="path285722" /></g><g
         id="g285724"
         transform="translate(602.5637,203.7789)"><path
           d="M 0,0 V -5.676"
           style="fill:none;stroke:#000000;stroke-width:1;stroke-linecap:butt;stroke-linejoin:miter;stroke-miterlimit:4;stroke-dasharray:none;stroke-opacity:1"
           id="path285726" /></g><g
         id="g285728"
         transform="translate(602.5637,198.1031)"><path
           d="M 0,0 V -0.734"
           style="fill:none;stroke:#000000;stroke-width:1;stroke-linecap:butt;stroke-linejoin:miter;stroke-miterlimit:4;stroke-dasharray:none;stroke-opacity:1"
           id="path285730" /></g><g
         id="g285732"
         transform="translate(602.5637,203.7789)"><path
           d="M 0,0 V 6.853"
           style="fill:none;stroke:#000000;stroke-width:1;stroke-linecap:butt;stroke-linejoin:miter;stroke-miterlimit:4;stroke-dasharray:none;stroke-opacity:1"
           id="path285734" /></g><g
         id="g285736"
         transform="translate(602.5637,203.7789)"><path
           d="M 0,0 V -5.676"
           style="fill:none;stroke:#000000;stroke-width:1;stroke-linecap:butt;stroke-linejoin:miter;stroke-miterlimit:4;stroke-dasharray:none;stroke-opacity:1"
           id="path285738" /></g><g
         id="g285740"
         transform="translate(602.5637,198.1031)"><path
           d="M 0,0 V -0.734"
           style="fill:none;stroke:#000000;stroke-width:1;stroke-linecap:butt;stroke-linejoin:miter;stroke-miterlimit:4;stroke-dasharray:none;stroke-opacity:1"
           id="path285742" /></g><g
         id="g285744"
         transform="translate(231.2397,204.9982)"><path
           d="M 0,0 H 68.626"
           style="fill:none;stroke:#000000;stroke-width:1;stroke-linecap:butt;stroke-linejoin:miter;stroke-miterlimit:4;stroke-dasharray:none;stroke-opacity:1"
           id="path285746" /></g><g
         id="g285748"
         transform="translate(297.8842,202.129)"><path
           d="M 0,0 10.841,2.905 0,5.81 Z"
           style="fill:#000000;fill-opacity:1;fill-rule:nonzero;stroke:none"
           id="path285750" /></g><g
         id="g285752"
         transform="translate(233.2215,207.8674)"><path
           d="M 0,0 -10.841,-2.904 0,-5.81 Z"
           style="fill:#000000;fill-opacity:1;fill-rule:nonzero;stroke:none"
           id="path285754" /></g><g
         id="g285756"
         transform="translate(318.545,204.9982)"><path
           d="M 0,0 H 68.626"
           style="fill:none;stroke:#000000;stroke-width:1;stroke-linecap:butt;stroke-linejoin:miter;stroke-miterlimit:4;stroke-dasharray:none;stroke-opacity:1"
           id="path285758" /></g><g
         id="g285760"
         transform="translate(385.1895,202.129)"><path
           d="M 0,0 10.841,2.905 0,5.81 Z"
           style="fill:#000000;fill-opacity:1;fill-rule:nonzero;stroke:none"
           id="path285762" /></g><g
         id="g285764"
         transform="translate(320.5268,207.8674)"><path
           d="M 0,0 -10.841,-2.904 0,-5.81 Z"
           style="fill:#000000;fill-opacity:1;fill-rule:nonzero;stroke:none"
           id="path285766" /></g><g
         id="g285768"
         transform="translate(292.8954,204.3329)"><path
           d="m 0,0 c 0,9.378 6.915,16.98 15.447,16.98 8.531,0 15.447,-7.602 15.447,-16.98 0,-9.377 -6.916,-16.98 -15.447,-16.98 C 6.915,-16.98 0,-9.377 0,0 Z"
           style="fill:none;stroke:#3f5eab;stroke-width:1;stroke-linecap:butt;stroke-linejoin:miter;stroke-miterlimit:4;stroke-dasharray:5;stroke-dashoffset:0;stroke-opacity:1"
           id="path285770" /></g><g
         id="g285772"
         transform="translate(231.9845,75.3187)"><path
           d="M 0,0 H 68.135"
           style="fill:none;stroke:#231f20;stroke-width:1;stroke-linecap:butt;stroke-linejoin:miter;stroke-miterlimit:4;stroke-dasharray:none;stroke-opacity:1"
           id="path285774" /></g><g
         id="g285776"
         transform="translate(300.1191,75.3187)"><path
           d="M 0,0 6.464,11.214"
           style="fill:none;stroke:#231f20;stroke-width:1;stroke-linecap:butt;stroke-linejoin:miter;stroke-miterlimit:4;stroke-dasharray:none;stroke-opacity:1"
           id="path285778" /></g><g
         id="g285780"
         transform="translate(231.9845,75.3187)"><path
           d="M 0,0 -7.512,9.826"
           style="fill:none;stroke:#231f20;stroke-width:1;stroke-linecap:butt;stroke-linejoin:miter;stroke-miterlimit:4;stroke-dasharray:none;stroke-opacity:1"
           id="path285782" /></g><g
         id="g285784"
         transform="translate(319.3396,75.6227)"><path
           d="M 0,0 H 68.135"
           style="fill:none;stroke:#231f20;stroke-width:1;stroke-linecap:butt;stroke-linejoin:miter;stroke-miterlimit:4;stroke-dasharray:none;stroke-opacity:1"
           id="path285786" /></g><g
         id="g285788"
         transform="translate(387.4743,75.6227)"><path
           d="M 0,0 6.464,11.214"
           style="fill:none;stroke:#231f20;stroke-width:1;stroke-linecap:butt;stroke-linejoin:miter;stroke-miterlimit:4;stroke-dasharray:none;stroke-opacity:1"
           id="path285790" /></g><g
         id="g285792"
         transform="translate(319.3396,75.6227)"><path
           d="M 0,0 -7.512,9.826"
           style="fill:none;stroke:#231f20;stroke-width:1;stroke-linecap:butt;stroke-linejoin:miter;stroke-miterlimit:4;stroke-dasharray:none;stroke-opacity:1"
           id="path285794" /></g><g
         id="g285796"
         transform="translate(291.1368,82.0419)"><path
           d="m 0,0 c 0,9.378 6.915,16.98 15.447,16.98 8.531,0 15.447,-7.602 15.447,-16.98 0,-9.377 -6.916,-16.98 -15.447,-16.98 C 6.915,-16.98 0,-9.377 0,0 Z"
           style="fill:none;stroke:#3f5eab;stroke-width:1;stroke-linecap:butt;stroke-linejoin:miter;stroke-miterlimit:4;stroke-dasharray:5;stroke-dashoffset:0;stroke-opacity:1"
           id="path285798" /></g><g
         id="g285800"><g
           id="g285802" /><g
           id="g285814"><g
             clip-path="url(#clipPath285806)"
             opacity="0"
             id="g285812"><text
               xml:space="preserve"
               transform="matrix(0.881361,0,0,-1,464.2329,61.9521)"
               style="font-variant:normal;font-weight:normal;font-stretch:normal;font-size:10.7039px;font-family:Arial;-inkscape-font-specification:ArialMT;writing-mode:lr-tb;fill:#000000;fill-opacity:1;fill-rule:nonzero;stroke:none"
               id="text285810"><tspan
                 x="0 8.9163485 11.292615 17.243982 19.620249 28.536598 30.912863 36.264812"
                 y="0"
                 sodipodi:role="line"
                 id="tspan285808">Minimize</tspan></text></g></g></g><g
         id="g285816"><g
           id="g285818" /><g
           id="g285830"><g
             clip-path="url(#clipPath285822)"
             opacity="0"
             id="g285828"><text
               xml:space="preserve"
               transform="matrix(0.881361,0,0,-1,463.3589,52.4375)"
               style="font-variant:normal;font-weight:normal;font-stretch:normal;font-size:10.7039px;font-family:Arial;-inkscape-font-specification:ArialMT;writing-mode:lr-tb;fill:#000000;fill-opacity:1;fill-rule:nonzero;stroke:none"
               id="text285826"><tspan
                 x="0 8.9163485 14.867717 20.219667 22.595932 31.512281 33.888546 39.240498"
                 y="0"
                 sodipodi:role="line"
                 id="tspan285824">Maximize</tspan></text></g></g></g><g
         id="g285832"
         transform="translate(515.7725,83.9556)"><path
           d="m 0,0 c 0,-9.515 -6.522,-12.688 -19.567,-9.515 -13.044,3.173 -19.566,-1.584 -19.566,-14.271 M -78.267,0 c 0,-9.515 6.522,-12.688 19.566,-9.515 13.045,3.173 19.568,-1.584 19.568,-14.271"
           style="fill:none;stroke:#000000;stroke-width:1;stroke-linecap:butt;stroke-linejoin:miter;stroke-miterlimit:4;stroke-dasharray:none;stroke-opacity:1"
           id="path285834" /></g><g
         id="g285836"><g
           id="g285838" /><g
           id="g285850"><g
             clip-path="url(#clipPath285842)"
             opacity="0"
             id="g285848"><text
               xml:space="preserve"
               transform="matrix(0.881361,0,0,-1,547.7051,61.6484)"
               style="font-variant:normal;font-weight:normal;font-stretch:normal;font-size:10.7039px;font-family:Arial;-inkscape-font-specification:ArialMT;writing-mode:lr-tb;fill:#000000;fill-opacity:1;fill-rule:nonzero;stroke:none"
               id="text285846"><tspan
                 x="0 8.9163485 11.292615 17.243982 19.620249 28.536598 30.912863 36.264812"
                 y="0"
                 sodipodi:role="line"
                 id="tspan285844">Minimize</tspan></text></g></g></g><g
         id="g285852"><g
           id="g285854" /><g
           id="g285866"><g
             clip-path="url(#clipPath285858)"
             opacity="0"
             id="g285864"><text
               xml:space="preserve"
               transform="matrix(0.881361,0,0,-1,546.8311,52.1338)"
               style="font-variant:normal;font-weight:normal;font-stretch:normal;font-size:10.7039px;font-family:Arial;-inkscape-font-specification:ArialMT;writing-mode:lr-tb;fill:#000000;fill-opacity:1;fill-rule:nonzero;stroke:none"
               id="text285862"><tspan
                 x="0 8.9163485 14.867717 20.219667 22.595932 31.512281 33.888546 39.240498"
                 y="0"
                 sodipodi:role="line"
                 id="tspan285860">Maximize</tspan></text></g></g></g><g
         id="g285868"
         transform="translate(599.2449,83.6516)"><path
           d="m 0,0 c 0,-9.515 -6.522,-12.688 -19.567,-9.515 -13.044,3.173 -19.566,-1.584 -19.566,-14.271 M -78.267,0 c 0,-9.515 6.522,-12.688 19.566,-9.515 13.045,3.173 19.568,-1.584 19.568,-14.271"
           style="fill:none;stroke:#000000;stroke-width:1;stroke-linecap:butt;stroke-linejoin:miter;stroke-miterlimit:4;stroke-dasharray:none;stroke-opacity:1"
           id="path285870" /></g><g
         id="g285872"
         transform="translate(501.7011,82.0419)"><path
           d="m 0,0 c 0,9.378 6.915,16.98 15.447,16.98 8.531,0 15.447,-7.602 15.447,-16.98 0,-9.377 -6.916,-16.98 -15.447,-16.98 C 6.915,-16.98 0,-9.377 0,0 Z"
           style="fill:none;stroke:#3f5eab;stroke-width:1;stroke-linecap:butt;stroke-linejoin:miter;stroke-miterlimit:4;stroke-dasharray:5;stroke-dashoffset:0;stroke-opacity:1"
           id="path285874" /></g><g
         id="g285876"
         transform="translate(461.192,61.6481)"><path
           d="m 0,0 c 0,9.378 6.915,16.98 15.447,16.98 8.531,0 15.447,-7.602 15.447,-16.98 0,-9.377 -6.916,-16.98 -15.447,-16.98 C 6.915,-16.98 0,-9.377 0,0 Z"
           style="fill:none;stroke:#cc6600;stroke-width:1;stroke-linecap:butt;stroke-linejoin:miter;stroke-miterlimit:4;stroke-dasharray:5;stroke-dashoffset:0;stroke-opacity:1"
           id="path285878" /></g></g></g></svg>
