<?xml version="1.0" encoding="UTF-8" standalone="no"?>
<!-- Created with Inkscape (http://www.inkscape.org/) -->

<svg
   width="67.583038mm"
   height="19.497278mm"
   viewBox="0 0 67.583038 19.497278"
   version="1.1"
   id="svg3390"
   xml:space="preserve"
   inkscape:version="1.2.1 (9c6d41e410, 2022-07-14)"
   sodipodi:docname="tick-marks-6.svg"
   xmlns:inkscape="http://www.inkscape.org/namespaces/inkscape"
   xmlns:sodipodi="http://sodipodi.sourceforge.net/DTD/sodipodi-0.dtd"
   xmlns="http://www.w3.org/2000/svg"
   xmlns:svg="http://www.w3.org/2000/svg"><sodipodi:namedview
     id="namedview3392"
     pagecolor="#ffffff"
     bordercolor="#000000"
     borderopacity="0.25"
     inkscape:showpageshadow="2"
     inkscape:pageopacity="0.0"
     inkscape:pagecheckerboard="0"
     inkscape:deskcolor="#d1d1d1"
     inkscape:document-units="mm"
     showgrid="false"
     inkscape:zoom="1.0690236"
     inkscape:cx="-434.50866"
     inkscape:cy="561.25984"
     inkscape:window-width="3440"
     inkscape:window-height="1377"
     inkscape:window-x="-8"
     inkscape:window-y="-8"
     inkscape:window-maximized="1"
     inkscape:current-layer="layer1" /><defs
     id="defs3387"><clipPath
       clipPathUnits="userSpaceOnUse"
       id="clipPath3773"><path
         d="M 0,0 H 192 V 56 H 0 Z"
         id="path3771" /></clipPath><clipPath
       clipPathUnits="userSpaceOnUse"
       id="clipPath3789"><path
         d="M 0,0 H 192 V 56 H 0 Z"
         id="path3787" /></clipPath><clipPath
       clipPathUnits="userSpaceOnUse"
       id="clipPath3805"><path
         d="M 0,0 H 192 V 56 H 0 Z"
         id="path3803" /></clipPath><clipPath
       clipPathUnits="userSpaceOnUse"
       id="clipPath3821"><path
         d="M 0,0 H 192 V 56 H 0 Z"
         id="path3819" /></clipPath></defs><g
     inkscape:label="Layer 1"
     inkscape:groupmode="layer"
     id="layer1"
     transform="translate(-220.00001)" /><g
     id="g3759"
     transform="matrix(0.35277776,0,0,0.35277778,-5.0620427e-6,4.8743197e-7)"><g
       id="g3761"
       transform="scale(1,-1)"><path
         d="M 0,-8.18 H 191.574"
         style="fill:none;stroke:#000000;stroke-width:1;stroke-linecap:butt;stroke-linejoin:miter;stroke-miterlimit:4;stroke-dasharray:none;stroke-opacity:1"
         id="path3763" /></g><g
       id="g3765"><g
         id="g3767"><g
           id="g3769"
           clip-path="url(#clipPath3773)"><g
             id="g3775"><g
               id="g3777"
               transform="scale(1,-1)"><path
                 d="m 93.184,-15.559 c 0,-9.515 -6.52,-12.687 -19.567,-9.515 -13.043,3.176 -19.566,-1.582 -19.566,-14.27 m -39.133,23.785 c 0,-9.515 6.523,-12.687 19.566,-9.515 13.043,3.176 19.567,-1.582 19.567,-14.27"
                 style="fill:none;stroke:#000000;stroke-width:1;stroke-linecap:butt;stroke-linejoin:miter;stroke-miterlimit:4;stroke-dasharray:none;stroke-opacity:1"
                 id="path3779" /></g></g></g></g></g><g
       id="g3781"><g
         id="g3783"><g
           id="g3785"
           clip-path="url(#clipPath3789)"><g
             id="g3791"><g
               id="g3793"
               transform="scale(1,-1)"><path
                 d="m 176.656,-15.863 c 0,-9.512 -6.519,-12.688 -19.566,-9.512 -13.043,3.172 -19.567,-1.586 -19.567,-14.273 m -39.132,23.785 c 0,-9.512 6.519,-12.688 19.566,-9.512 13.043,3.172 19.566,-1.586 19.566,-14.273"
                 style="fill:none;stroke:#000000;stroke-width:1;stroke-linecap:butt;stroke-linejoin:miter;stroke-miterlimit:4;stroke-dasharray:none;stroke-opacity:1"
                 id="path3795" /></g></g></g></g></g><g
       id="g3797"><g
         id="g3799"><g
           id="g3801"
           clip-path="url(#clipPath3805)"><g
             id="g3807"><g
               id="g3809"
               transform="scale(1,-1)"><path
                 d="m 79.113,-17.473 c 0,9.379 6.914,16.981 15.446,16.981 8.531,0 15.449,-7.602 15.449,-16.981 0,-9.375 -6.918,-16.976 -15.449,-16.976 -8.532,0 -15.446,7.601 -15.446,16.976 z"
                 style="fill:none;stroke:#3f5eab;stroke-width:1;stroke-linecap:butt;stroke-linejoin:miter;stroke-miterlimit:4;stroke-dasharray:5, 5;stroke-dashoffset:0;stroke-opacity:1"
                 id="path3811" /></g></g></g></g></g><g
       id="g3813"><g
         id="g3815"><g
           id="g3817"
           clip-path="url(#clipPath3821)"><g
             id="g3823"><g
               id="g3825"
               transform="scale(1,-1)"><path
                 d="m 38.605,-37.863 c 0,9.375 6.915,16.976 15.446,16.976 8.531,0 15.449,-7.601 15.449,-16.976 0,-9.379 -6.918,-16.981 -15.449,-16.981 -8.531,0 -15.446,7.602 -15.446,16.981 z"
                 style="fill:none;stroke:#cc6600;stroke-width:1;stroke-linecap:butt;stroke-linejoin:miter;stroke-miterlimit:4;stroke-dasharray:5, 5;stroke-dashoffset:0;stroke-opacity:1"
                 id="path3827" /></g></g></g></g></g></g></svg>
